<?xml version="1.0" encoding="UTF-8" standalone="no"?>
<!DOCTYPE svg PUBLIC "-//W3C//DTD SVG 1.1//EN" "http://www.w3.org/Graphics/SVG/1.1/DTD/svg11.dtd">
<svg width="100%" height="100%" viewBox="0 0 117 46" version="1.1" xmlns="http://www.w3.org/2000/svg" xmlns:xlink="http://www.w3.org/1999/xlink" xml:space="preserve" xmlns:serif="http://www.serif.com/" style="fill-rule:evenodd;clip-rule:evenodd;stroke-linejoin:round;stroke-miterlimit:2;">
    <g transform="matrix(1,0,0,1,-3,-53)">
        <g id="Artboard2" transform="matrix(1.17,0,0,0.46,3,53)">
            <rect x="0" y="0" width="100" height="100" style="fill:none;"/>
            <g transform="matrix(0.854701,0,0,2.76087,-16.2393,2.17391)">
                <g transform="matrix(0.0833333,0,0,0.393701,22.5833,-1.9685)">
                    <path d="M17,7.5C17,7.224 15.656,7 14,7L8,7C6.344,7 5,7.224 5,7.5L5,18.5C5,18.776 6.344,19 8,19L14,19C15.656,19 17,18.776 17,18.5L17,7.5Z" style="fill:rgb(161,57,57);"/>
                </g>
                <g transform="matrix(2.16667,0,0,0.393701,14.1667,-1.9685)">
                    <path d="M17,10C17,8.344 16.69,7 16.308,7L5.692,7C5.31,7 5,8.344 5,10L5,16C5,17.656 5.31,19 5.692,19L16.308,19C16.69,19 17,17.656 17,16L17,10Z" style="fill:rgb(17,16,47);"/>
                </g>
                <g transform="matrix(0.329441,0,0,0.259402,9.22939,1.30935)">
                    <text x="57.089px" y="5.462px" style="font-family:'MicrosoftSansSerif', 'Microsoft Sans Serif', sans-serif;font-size:6.324px;fill:white;">job_id</text>
                    <text x="57.089px" y="13.051px" style="font-family:'MicrosoftSansSerif', 'Microsoft Sans Serif', sans-serif;font-size:6.324px;fill:rgb(142,142,142);">0</text>
                </g>
            </g>
            <g transform="matrix(0.854701,0,0,2.76087,-16.2393,2.17391)">
                <g transform="matrix(2.16667,0,0,0.393701,14.1667,3.54331)">
                    <path d="M17,10C17,8.344 16.69,7 16.308,7L5.692,7C5.31,7 5,8.344 5,10L5,16C5,17.656 5.31,19 5.692,19L16.308,19C16.69,19 17,17.656 17,16L17,10Z" style="fill:rgb(17,16,47);"/>
                </g>
                <g transform="matrix(0.329441,0,0,0.259402,9.22939,6.82116)">
                    <text x="57.089px" y="5.462px" style="font-family:'MicrosoftSansSerif', 'Microsoft Sans Serif', sans-serif;font-size:6.324px;fill:white;">title</text>
                    <text x="57.089px" y="13.051px" style="font-family:'MicrosoftSansSerif', 'Microsoft Sans Serif', sans-serif;font-size:6.324px;fill:rgb(142,142,142);">0</text>
                </g>
                <g transform="matrix(0.0833333,0,0,0.393701,22.5833,3.54331)">
                    <path d="M17,7.5C17,7.224 15.656,7 14,7L8,7C6.344,7 5,7.224 5,7.5L5,18.5C5,18.776 6.344,19 8,19L14,19C15.656,19 17,18.776 17,18.5L17,7.5Z" style="fill:rgb(161,57,57);"/>
                </g>
            </g>
            <g transform="matrix(0.854701,0,0,2.76087,-16.2393,-104.348)">
                <g transform="matrix(0.0833333,0,0,0.393701,22.5833,47.6378)">
                    <path d="M17,7.5C17,7.224 15.656,7 14,7L8,7C6.344,7 5,7.224 5,7.5L5,18.5C5,18.776 6.344,19 8,19L14,19C15.656,19 17,18.776 17,18.5L17,7.5Z" style="fill:rgb(161,57,57);"/>
                </g>
                <g transform="matrix(2.16667,0,0,0.393701,14.1667,47.6378)">
                    <path d="M17,10C17,8.344 16.69,7 16.308,7L5.692,7C5.31,7 5,8.344 5,10L5,16C5,17.656 5.31,19 5.692,19L16.308,19C16.69,19 17,17.656 17,16L17,10Z" style="fill:rgb(17,16,47);"/>
                </g>
                <g transform="matrix(0.329441,0,0,0.259402,9.22939,50.9157)">
                    <text x="57.089px" y="5.462px" style="font-family:'MicrosoftSansSerif', 'Microsoft Sans Serif', sans-serif;font-size:6.324px;fill:white;">telecommuting</text>
                    <text x="57.089px" y="13.051px" style="font-family:'MicrosoftSansSerif', 'Microsoft Sans Serif', sans-serif;font-size:6.324px;fill:rgb(190,190,190);">0</text>
                </g>
            </g>
            <g transform="matrix(0.854701,0,0,2.76087,-16.2393,-104.348)">
                <g transform="matrix(0.0833333,0,0,0.393701,22.5833,53.1496)">
                    <path d="M17,7.5C17,7.224 15.656,7 14,7L8,7C6.344,7 5,7.224 5,7.5L5,18.5C5,18.776 6.344,19 8,19L14,19C15.656,19 17,18.776 17,18.5L17,7.5Z" style="fill:rgb(161,57,57);"/>
                </g>
                <g transform="matrix(2.16667,0,0,0.393701,14.1667,53.1496)">
                    <path d="M17,10C17,8.344 16.69,7 16.308,7L5.692,7C5.31,7 5,8.344 5,10L5,16C5,17.656 5.31,19 5.692,19L16.308,19C16.69,19 17,17.656 17,16L17,10Z" style="fill:rgb(17,16,47);"/>
                </g>
                <g transform="matrix(0.329441,0,0,0.259402,9.22939,56.4275)">
                    <text x="57.089px" y="5.462px" style="font-family:'MicrosoftSansSerif', 'Microsoft Sans Serif', sans-serif;font-size:6.324px;fill:white;">has_company_logo</text>
                    <text x="57.089px" y="13.051px" style="font-family:'MicrosoftSansSerif', 'Microsoft Sans Serif', sans-serif;font-size:6.324px;fill:rgb(190,190,190);">0</text>
                </g>
            </g>
            <g transform="matrix(0.854701,0,0,2.76087,-16.2393,-104.348)">
                <g transform="matrix(0.0833333,0,0,0.393701,22.5833,58.6614)">
                    <path d="M17,7.5C17,7.224 15.656,7 14,7L8,7C6.344,7 5,7.224 5,7.5L5,18.5C5,18.776 6.344,19 8,19L14,19C15.656,19 17,18.776 17,18.5L17,7.5Z" style="fill:rgb(161,57,57);"/>
                </g>
                <g transform="matrix(2.16667,0,0,0.393701,14.1667,58.6614)">
                    <path d="M17,10C17,8.344 16.69,7 16.308,7L5.692,7C5.31,7 5,8.344 5,10L5,16C5,17.656 5.31,19 5.692,19L16.308,19C16.69,19 17,17.656 17,16L17,10Z" style="fill:rgb(17,16,47);"/>
                </g>
                <g transform="matrix(0.329441,0,0,0.259402,9.22939,61.9393)">
                    <text x="57.089px" y="5.462px" style="font-family:'MicrosoftSansSerif', 'Microsoft Sans Serif', sans-serif;font-size:6.324px;fill:white;">has_questions</text>
                    <text x="57.089px" y="13.051px" style="font-family:'MicrosoftSansSerif', 'Microsoft Sans Serif', sans-serif;font-size:6.324px;fill:rgb(190,190,190);">0</text>
                </g>
            </g>
            <g transform="matrix(0.854701,0,0,2.76087,-16.2393,-180.435)">
                <g transform="matrix(0.0833333,0,0,0.393701,22.5833,91.7323)">
                    <path d="M17,7.5C17,7.224 15.656,7 14,7L8,7C6.344,7 5,7.224 5,7.5L5,18.5C5,18.776 6.344,19 8,19L14,19C15.656,19 17,18.776 17,18.5L17,7.5Z" style="fill:rgb(161,57,57);"/>
                </g>
                <g transform="matrix(2.16667,0,0,0.393701,14.1667,91.7323)">
                    <path d="M17,10C17,8.344 16.69,7 16.308,7L5.692,7C5.31,7 5,8.344 5,10L5,16C5,17.656 5.31,19 5.692,19L16.308,19C16.69,19 17,17.656 17,16L17,10Z" style="fill:rgb(17,16,47);"/>
                </g>
                <g transform="matrix(0.329441,0,0,0.259402,9.22939,95.0101)">
                    <text x="57.089px" y="5.462px" style="font-family:'MicrosoftSansSerif', 'Microsoft Sans Serif', sans-serif;font-size:6.324px;fill:white;">fraudulent</text>
                    <text x="57.089px" y="13.051px" style="font-family:'MicrosoftSansSerif', 'Microsoft Sans Serif', sans-serif;font-size:6.324px;fill:rgb(190,190,190);">0</text>
                </g>
            </g>
            <g transform="matrix(0.854701,0,0,2.76087,17.9487,-89.1304)">
                <g transform="matrix(0.0833333,0,0,0.393701,22.5833,31.1024)">
                    <path d="M17,7.5C17,7.224 15.656,7 14,7L8,7C6.344,7 5,7.224 5,7.5L5,18.5C5,18.776 6.344,19 8,19L14,19C15.656,19 17,18.776 17,18.5L17,7.5Z" style="fill:rgb(161,57,57);"/>
                </g>
                <g transform="matrix(2.16667,0,0,0.393701,14.1667,31.1024)">
                    <path d="M17,10C17,8.344 16.69,7 16.308,7L5.692,7C5.31,7 5,8.344 5,10L5,16C5,17.656 5.31,19 5.692,19L16.308,19C16.69,19 17,17.656 17,16L17,10Z" style="fill:rgb(17,16,47);"/>
                </g>
                <g transform="matrix(0.329441,0,0,0.259402,9.22939,34.3802)">
                    <text x="57.089px" y="5.462px" style="font-family:'MicrosoftSansSerif', 'Microsoft Sans Serif', sans-serif;font-size:6.324px;fill:white;">description</text>
                    <text x="57.089px" y="13.051px" style="font-family:'MicrosoftSansSerif', 'Microsoft Sans Serif', sans-serif;font-size:6.324px;fill:rgb(190,190,190);">0</text>
                </g>
            </g>
            <g transform="matrix(0.854701,0,0,2.76087,17.9487,-13.0435)">
                <g transform="matrix(0.0833333,0,0,0.393701,22.5833,9.05512)">
                    <path d="M17,7.5C17,7.224 15.656,7 14,7L8,7C6.344,7 5,7.224 5,7.5L5,18.5C5,18.776 6.344,19 8,19L14,19C15.656,19 17,18.776 17,18.5L17,7.5Z" style="fill:rgb(161,57,57);"/>
                </g>
                <g transform="matrix(2.16667,0,0,0.393701,14.1667,9.05512)">
                    <path d="M17,10C17,8.344 16.69,7 16.308,7L5.692,7C5.31,7 5,8.344 5,10L5,16C5,17.656 5.31,19 5.692,19L16.308,19C16.69,19 17,17.656 17,16L17,10Z" style="fill:rgb(17,16,47);"/>
                </g>
                <g transform="matrix(0.329441,0,0,0.259402,9.22939,12.333)">
                    <text x="57.089px" y="5.462px" style="font-family:'MicrosoftSansSerif', 'Microsoft Sans Serif', sans-serif;font-size:6.324px;fill:white;">location</text>
                    <text x="57.089px" y="13.051px" style="font-family:'MicrosoftSansSerif', 'Microsoft Sans Serif', sans-serif;font-size:6.324px;fill:rgb(142,142,142);">0</text>
                </g>
            </g>
            <g transform="matrix(0.854701,0,0,2.76087,17.9487,-73.913)">
                <g transform="matrix(0.0833333,0,0,0.393701,22.5833,36.6142)">
                    <path d="M17,7.5C17,7.224 15.656,7 14,7L8,7C6.344,7 5,7.224 5,7.5L5,18.5C5,18.776 6.344,19 8,19L14,19C15.656,19 17,18.776 17,18.5L17,7.5Z" style="fill:rgb(161,57,57);"/>
                </g>
                <g transform="matrix(2.16667,0,0,0.393701,14.1667,36.6142)">
                    <path d="M17,10C17,8.344 16.69,7 16.308,7L5.692,7C5.31,7 5,8.344 5,10L5,16C5,17.656 5.31,19 5.692,19L16.308,19C16.69,19 17,17.656 17,16L17,10Z" style="fill:rgb(17,16,47);"/>
                </g>
                <g transform="matrix(0.329441,0,0,0.259402,9.22939,39.892)">
                    <text x="57.089px" y="5.462px" style="font-family:'MicrosoftSansSerif', 'Microsoft Sans Serif', sans-serif;font-size:6.324px;fill:white;">requirements</text>
                    <text x="57.089px" y="13.051px" style="font-family:'MicrosoftSansSerif', 'Microsoft Sans Serif', sans-serif;font-size:6.324px;fill:rgb(190,190,190);">0</text>
                </g>
            </g>
            <g transform="matrix(0.854701,0,0,2.76087,17.9487,-28.2609)">
                <g transform="matrix(0.0833333,0,0,0.393701,22.5833,25.5906)">
                    <path d="M17,7.5C17,7.224 15.656,7 14,7L8,7C6.344,7 5,7.224 5,7.5L5,18.5C5,18.776 6.344,19 8,19L14,19C15.656,19 17,18.776 17,18.5L17,7.5Z" style="fill:rgb(161,57,57);"/>
                </g>
                <g transform="matrix(2.16667,0,0,0.393701,14.1667,25.5906)">
                    <path d="M17,10C17,8.344 16.69,7 16.308,7L5.692,7C5.31,7 5,8.344 5,10L5,16C5,17.656 5.31,19 5.692,19L16.308,19C16.69,19 17,17.656 17,16L17,10Z" style="fill:rgb(17,16,47);"/>
                </g>
                <g transform="matrix(0.329441,0,0,0.259402,9.22939,28.8684)">
                    <text x="57.089px" y="5.462px" style="font-family:'MicrosoftSansSerif', 'Microsoft Sans Serif', sans-serif;font-size:6.324px;fill:white;">company_proﬁle</text>
                    <text x="57.089px" y="13.051px" style="font-family:'MicrosoftSansSerif', 'Microsoft Sans Serif', sans-serif;font-size:6.324px;fill:rgb(190,190,190);">0</text>
                </g>
            </g>
            <g transform="matrix(0.854701,0,0,2.76087,17.9487,-119.565)">
                <g transform="matrix(0.0833333,0,0,0.393701,22.5833,64.1732)">
                    <path d="M17,7.5C17,7.224 15.656,7 14,7L8,7C6.344,7 5,7.224 5,7.5L5,18.5C5,18.776 6.344,19 8,19L14,19C15.656,19 17,18.776 17,18.5L17,7.5Z" style="fill:rgb(161,57,57);"/>
                </g>
                <g transform="matrix(2.16667,0,0,0.393701,14.1667,64.1732)">
                    <path d="M17,10C17,8.344 16.69,7 16.308,7L5.692,7C5.31,7 5,8.344 5,10L5,16C5,17.656 5.31,19 5.692,19L16.308,19C16.69,19 17,17.656 17,16L17,10Z" style="fill:rgb(17,16,47);"/>
                </g>
                <g transform="matrix(0.329441,0,0,0.259402,9.22939,67.4511)">
                    <text x="57.089px" y="5.462px" style="font-family:'MicrosoftSansSerif', 'Microsoft Sans Serif', sans-serif;font-size:6.324px;fill:white;">employment_type</text>
                    <text x="57.089px" y="13.051px" style="font-family:'MicrosoftSansSerif', 'Microsoft Sans Serif', sans-serif;font-size:6.324px;fill:rgb(190,190,190);">0</text>
                </g>
            </g>
            <g transform="matrix(0.854701,0,0,2.76087,17.9487,-150)">
                <g transform="matrix(0.0833333,0,0,0.393701,22.5833,80.7087)">
                    <path d="M17,7.5C17,7.224 15.656,7 14,7L8,7C6.344,7 5,7.224 5,7.5L5,18.5C5,18.776 6.344,19 8,19L14,19C15.656,19 17,18.776 17,18.5L17,7.5Z" style="fill:rgb(161,57,57);"/>
                </g>
                <g transform="matrix(2.16667,0,0,0.393701,14.1667,80.7087)">
                    <path d="M17,10C17,8.344 16.69,7 16.308,7L5.692,7C5.31,7 5,8.344 5,10L5,16C5,17.656 5.31,19 5.692,19L16.308,19C16.69,19 17,17.656 17,16L17,10Z" style="fill:rgb(17,16,47);"/>
                </g>
                <g transform="matrix(0.329441,0,0,0.259402,9.22939,83.9865)">
                    <text x="57.089px" y="5.462px" style="font-family:'MicrosoftSansSerif', 'Microsoft Sans Serif', sans-serif;font-size:6.324px;fill:white;">industry</text>
                    <text x="57.089px" y="13.051px" style="font-family:'MicrosoftSansSerif', 'Microsoft Sans Serif', sans-serif;font-size:6.324px;fill:rgb(190,190,190);">0</text>
                </g>
            </g>
            <g transform="matrix(0.854701,0,0,2.76087,52.9915,-241.304)">
                <g transform="matrix(0.0833333,0,0,0.393701,22.5833,86.2205)">
                    <path d="M17,7.5C17,7.224 15.656,7 14,7L8,7C6.344,7 5,7.224 5,7.5L5,18.5C5,18.776 6.344,19 8,19L14,19C15.656,19 17,18.776 17,18.5L17,7.5Z" style="fill:rgb(161,57,57);"/>
                </g>
                <g transform="matrix(2.16667,0,0,0.393701,14.1667,86.2205)">
                    <path d="M17,10C17,8.344 16.69,7 16.308,7L5.692,7C5.31,7 5,8.344 5,10L5,16C5,17.656 5.31,19 5.692,19L16.308,19C16.69,19 17,17.656 17,16L17,10Z" style="fill:rgb(17,16,47);"/>
                </g>
                <g transform="matrix(0.329441,0,0,0.259402,9.22939,89.4983)">
                    <text x="57.089px" y="5.462px" style="font-family:'MicrosoftSansSerif', 'Microsoft Sans Serif', sans-serif;font-size:6.324px;fill:white;">function</text>
                    <text x="57.089px" y="13.051px" style="font-family:'MicrosoftSansSerif', 'Microsoft Sans Serif', sans-serif;font-size:6.324px;fill:rgb(190,190,190);">0</text>
                </g>
            </g>
            <g transform="matrix(0.854701,0,0,2.76087,52.9915,-180.435)">
                <g transform="matrix(0.0833333,0,0,0.393701,22.5833,69.685)">
                    <path d="M17,7.5C17,7.224 15.656,7 14,7L8,7C6.344,7 5,7.224 5,7.5L5,18.5C5,18.776 6.344,19 8,19L14,19C15.656,19 17,18.776 17,18.5L17,7.5Z" style="fill:rgb(161,57,57);"/>
                </g>
                <g transform="matrix(2.16667,0,0,0.393701,14.1667,69.685)">
                    <path d="M17,10C17,8.344 16.69,7 16.308,7L5.692,7C5.31,7 5,8.344 5,10L5,16C5,17.656 5.31,19 5.692,19L16.308,19C16.69,19 17,17.656 17,16L17,10Z" style="fill:rgb(17,16,47);"/>
                </g>
                <g transform="matrix(0.329441,0,0,0.259402,9.22939,72.9629)">
                    <text x="57.089px" y="5.462px" style="font-family:'MicrosoftSansSerif', 'Microsoft Sans Serif', sans-serif;font-size:6.324px;fill:white;">required_experience</text>
                    <text x="57.089px" y="13.051px" style="font-family:'MicrosoftSansSerif', 'Microsoft Sans Serif', sans-serif;font-size:6.324px;fill:rgb(190,190,190);">0</text>
                </g>
            </g>
            <g transform="matrix(0.854701,0,0,2.76087,52.9915,-89.1304)">
                <g transform="matrix(0.0833333,0,0,0.393701,22.5833,42.126)">
                    <path d="M17,7.5C17,7.224 15.656,7 14,7L8,7C6.344,7 5,7.224 5,7.5L5,18.5C5,18.776 6.344,19 8,19L14,19C15.656,19 17,18.776 17,18.5L17,7.5Z" style="fill:rgb(161,57,57);"/>
                </g>
                <g transform="matrix(2.16667,0,0,0.393701,14.1667,42.126)">
                    <path d="M17,10C17,8.344 16.69,7 16.308,7L5.692,7C5.31,7 5,8.344 5,10L5,16C5,17.656 5.31,19 5.692,19L16.308,19C16.69,19 17,17.656 17,16L17,10Z" style="fill:rgb(17,16,47);"/>
                </g>
                <g transform="matrix(0.329441,0,0,0.259402,9.22939,45.4038)">
                    <text x="57.089px" y="5.462px" style="font-family:'MicrosoftSansSerif', 'Microsoft Sans Serif', sans-serif;font-size:6.324px;fill:white;">beneﬁts</text>
                    <text x="57.089px" y="13.051px" style="font-family:'MicrosoftSansSerif', 'Microsoft Sans Serif', sans-serif;font-size:6.324px;fill:rgb(190,190,190);">0</text>
                </g>
            </g>
            <g transform="matrix(0.854701,0,0,2.76087,52.9915,-165.217)">
                <g transform="matrix(0.0833333,0,0,0.393701,22.5833,75.1969)">
                    <path d="M17,7.5C17,7.224 15.656,7 14,7L8,7C6.344,7 5,7.224 5,7.5L5,18.5C5,18.776 6.344,19 8,19L14,19C15.656,19 17,18.776 17,18.5L17,7.5Z" style="fill:rgb(161,57,57);"/>
                </g>
                <g transform="matrix(2.16667,0,0,0.393701,14.1667,75.1969)">
                    <path d="M17,10C17,8.344 16.69,7 16.308,7L5.692,7C5.31,7 5,8.344 5,10L5,16C5,17.656 5.31,19 5.692,19L16.308,19C16.69,19 17,17.656 17,16L17,10Z" style="fill:rgb(17,16,47);"/>
                </g>
                <g transform="matrix(0.329441,0,0,0.259402,9.22939,78.4747)">
                    <text x="57.089px" y="5.462px" style="font-family:'MicrosoftSansSerif', 'Microsoft Sans Serif', sans-serif;font-size:6.324px;fill:white;">required_education</text>
                    <text x="57.089px" y="13.051px" style="font-family:'MicrosoftSansSerif', 'Microsoft Sans Serif', sans-serif;font-size:6.324px;fill:rgb(190,190,190);">0</text>
                </g>
            </g>
            <g transform="matrix(0.854701,0,0,2.76087,52.9915,17.3913)">
                <g transform="matrix(0.0833333,0,0,0.393701,22.5833,14.5669)">
                    <path d="M17,7.5C17,7.224 15.656,7 14,7L8,7C6.344,7 5,7.224 5,7.5L5,18.5C5,18.776 6.344,19 8,19L14,19C15.656,19 17,18.776 17,18.5L17,7.5Z" style="fill:rgb(161,57,57);"/>
                </g>
                <g transform="matrix(2.16667,0,0,0.393701,14.1667,14.5669)">
                    <path d="M17,10C17,8.344 16.69,7 16.308,7L5.692,7C5.31,7 5,8.344 5,10L5,16C5,17.656 5.31,19 5.692,19L16.308,19C16.69,19 17,17.656 17,16L17,10Z" style="fill:rgb(17,16,47);"/>
                </g>
                <g transform="matrix(0.329441,0,0,0.259402,9.22939,17.8448)">
                    <text x="57.089px" y="5.462px" style="font-family:'MicrosoftSansSerif', 'Microsoft Sans Serif', sans-serif;font-size:6.324px;fill:white;">department</text>
                    <text x="57.089px" y="13.051px" style="font-family:'MicrosoftSansSerif', 'Microsoft Sans Serif', sans-serif;font-size:6.324px;fill:rgb(190,190,190);">0</text>
                </g>
            </g>
            <g transform="matrix(0.854701,0,0,2.76087,52.9915,17.3913)">
                <g transform="matrix(0.0833333,0,0,0.393701,22.5833,20.0787)">
                    <path d="M17,7.5C17,7.224 15.656,7 14,7L8,7C6.344,7 5,7.224 5,7.5L5,18.5C5,18.776 6.344,19 8,19L14,19C15.656,19 17,18.776 17,18.5L17,7.5Z" style="fill:rgb(161,57,57);"/>
                </g>
                <g transform="matrix(2.16667,0,0,0.393701,14.1667,20.0787)">
                    <path d="M17,10C17,8.344 16.69,7 16.308,7L5.692,7C5.31,7 5,8.344 5,10L5,16C5,17.656 5.31,19 5.692,19L16.308,19C16.69,19 17,17.656 17,16L17,10Z" style="fill:rgb(17,16,47);"/>
                </g>
                <g transform="matrix(0.329441,0,0,0.259402,9.22939,23.3566)">
                    <text x="57.089px" y="5.462px" style="font-family:'MicrosoftSansSerif', 'Microsoft Sans Serif', sans-serif;font-size:6.324px;fill:white;">salary_range</text>
                    <text x="57.089px" y="13.051px" style="font-family:'MicrosoftSansSerif', 'Microsoft Sans Serif', sans-serif;font-size:6.324px;fill:rgb(190,190,190);">0</text>
                </g>
            </g>
        </g>
    </g>
</svg>
