<?xml version="1.0" encoding="UTF-8" standalone="no"?>
<!DOCTYPE svg PUBLIC "-//W3C//DTD SVG 1.1//EN" "http://www.w3.org/Graphics/SVG/1.1/DTD/svg11.dtd">
<svg width="100%" height="100%" viewBox="0 0 75 21" version="1.1" xmlns="http://www.w3.org/2000/svg" xmlns:xlink="http://www.w3.org/1999/xlink" xml:space="preserve" xmlns:serif="http://www.serif.com/" style="fill-rule:evenodd;clip-rule:evenodd;stroke-linejoin:round;stroke-miterlimit:2;">
    <g transform="matrix(1,0,0,1,-104,-101)">
        <g id="Artboard4" transform="matrix(0.75,0,0,0.21,104,101)">
            <rect x="0" y="0" width="100" height="100" style="fill:none;"/>
            <g transform="matrix(0.592593,0,0,2.1164,-52.1481,-227.513)">
                <path d="M150,112C159.383,112 167,119.617 167,129C167,138.383 159.383,146 150,146C140.617,146 133,138.383 133,129C133,119.617 140.617,112 150,112ZM150,113.6C158.499,113.6 165.4,120.501 165.4,129C165.4,137.499 158.499,144.4 150,144.4C141.501,144.4 134.6,137.499 134.6,129C134.6,120.501 141.501,113.6 150,113.6Z" style="fill:rgb(63,63,63);"/>
                <clipPath id="_clip1">
                    <path d="M150,112C159.383,112 167,119.617 167,129C167,138.383 159.383,146 150,146C140.617,146 133,138.383 133,129C133,119.617 140.617,112 150,112ZM150,113.6C158.499,113.6 165.4,120.501 165.4,129C165.4,137.499 158.499,144.4 150,144.4C141.501,144.4 134.6,137.499 134.6,129C134.6,120.501 141.501,113.6 150,113.6Z"/>
                </clipPath>
                <g clip-path="url(#_clip1)">
                    <g transform="matrix(0.999981,0.00609136,-0.00700804,1.15047,-21.2826,-17.5442)">
                        <rect x="172" y="108" width="37" height="35" style="fill:rgb(72,70,143);"/>
                    </g>
                    <g transform="matrix(0.846739,0.532009,-0.612071,0.974164,53.8456,-83.6053)">
                        <rect x="172" y="108" width="37" height="35" style="fill:rgb(72,70,143);"/>
                    </g>
                </g>
            </g>
            <g transform="matrix(0.592593,0,0,2.1164,-24.2963,-227.513)">
                <path d="M150,112C159.383,112 167,119.617 167,129C167,138.383 159.383,146 150,146C140.617,146 133,138.383 133,129C133,119.617 140.617,112 150,112ZM150,113.6C158.499,113.6 165.4,120.501 165.4,129C165.4,137.499 158.499,144.4 150,144.4C141.501,144.4 134.6,137.499 134.6,129C134.6,120.501 141.501,113.6 150,113.6Z" style="fill:rgb(72,70,143);"/>
                <clipPath id="_clip2">
                    <path d="M150,112C159.383,112 167,119.617 167,129C167,138.383 159.383,146 150,146C140.617,146 133,138.383 133,129C133,119.617 140.617,112 150,112ZM150,113.6C158.499,113.6 165.4,120.501 165.4,129C165.4,137.499 158.499,144.4 150,144.4C141.501,144.4 134.6,137.499 134.6,129C134.6,120.501 141.501,113.6 150,113.6Z"/>
                </clipPath>
                <g clip-path="url(#_clip2)">
                    <g transform="matrix(0.999981,0.00609136,-0.00700804,1.15047,-21.2826,-17.5442)">
                        <rect x="172" y="108" width="37" height="35" style="fill:rgb(63,63,63);"/>
                    </g>
                    <g transform="matrix(0.846739,0.532009,-0.612071,0.974164,53.8456,-83.6053)">
                        <rect x="172" y="108" width="37" height="35" style="fill:rgb(63,63,63);"/>
                    </g>
                </g>
            </g>
            <g transform="matrix(0.592593,0,0,2.1164,-47.4074,-176.72)">
                <text x="138.814px" y="126.451px" style="font-family:'MicrosoftSansSerif', 'Microsoft Sans Serif', sans-serif;font-size:4.167px;fill:rgb(72,70,143);">702</text>
            </g>
            <g transform="matrix(0.592593,0,0,2.1164,-46.2222,-219.048)">
                <text x="138.814px" y="126.451px" style="font-family:'MicrosoftSansSerif', 'Microsoft Sans Serif', sans-serif;font-size:4.167px;fill:rgb(72,70,143);">0</text>
            </g>
            <g transform="matrix(0.592593,0,0,2.1164,-18.3704,-219.048)">
                <text x="138.814px" y="126.451px" style="font-family:'MicrosoftSansSerif', 'Microsoft Sans Serif', sans-serif;font-size:4.167px;fill:rgb(72,70,143);">1</text>
            </g>
            <g transform="matrix(0.592593,0,0,2.1164,-18.963,-176.72)">
                <text x="138.814px" y="126.451px" style="font-family:'MicrosoftSansSerif', 'Microsoft Sans Serif', sans-serif;font-size:4.167px;fill:rgb(72,70,143);">72</text>
            </g>
        </g>
    </g>
</svg>
