<?xml version="1.0" encoding="UTF-8" standalone="no"?>
<!DOCTYPE svg PUBLIC "-//W3C//DTD SVG 1.1//EN" "http://www.w3.org/Graphics/SVG/1.1/DTD/svg11.dtd">
<svg width="100%" height="100%" viewBox="0 0 84 15" version="1.1" xmlns="http://www.w3.org/2000/svg" xmlns:xlink="http://www.w3.org/1999/xlink" xml:space="preserve" xmlns:serif="http://www.serif.com/" style="fill-rule:evenodd;clip-rule:evenodd;stroke-linejoin:round;stroke-miterlimit:2;">
    <g transform="matrix(1,0,0,1,-366,-62)">
        <g id="Artboard5" transform="matrix(0.84,0,0,0.15,366,62)">
            <rect x="0" y="0" width="100" height="100" style="fill:none;"/>
            <g transform="matrix(0.892857,0,0,1.4,44.0476,-13.3333)">
                <g transform="matrix(2.88889,0,0,2.38095,-7.77778,-2.38095)">
                    <path d="M17,10C17,8.344 16.69,7 16.308,7L5.692,7C5.31,7 5,8.344 5,10L5,16C5,17.656 5.31,19 5.692,19L16.308,19C16.69,19 17,17.656 17,16L17,10Z" style="fill:rgb(17,16,47);"/>
                </g>
                <g transform="matrix(0.439254,0,0,1.56877,-10.3608,22.2042)">
                    <text x="57.089px" y="5.462px" style="font-family:'MicrosoftSansSerif', 'Microsoft Sans Serif', sans-serif;font-size:6.324px;fill:white;">has_questions</text>
                </g>
            </g>
            <g transform="matrix(0.892857,0,0,1.4,10.7143,-13.3333)">
                <g transform="matrix(2.88889,0,0,2.38095,-7.77778,-2.38095)">
                    <path d="M17,10C17,8.344 16.69,7 16.308,7L5.692,7C5.31,7 5,8.344 5,10L5,16C5,17.656 5.31,19 5.692,19L16.308,19C16.69,19 17,17.656 17,16L17,10Z" style="fill:rgb(17,16,47);"/>
                </g>
                <g transform="matrix(0.439254,0,0,1.56877,-10.3608,22.2042)">
                    <text x="57.089px" y="5.462px" style="font-family:'MicrosoftSansSerif', 'Microsoft Sans Serif', sans-serif;font-size:6.324px;fill:white;">telecommuting</text>
                </g>
            </g>
            <g transform="matrix(0.892857,0,0,1.4,44.0476,33.3333)">
                <g transform="matrix(2.88889,0,0,2.38095,-7.77778,-2.38095)">
                    <path d="M17,10C17,8.344 16.69,7 16.308,7L5.692,7C5.31,7 5,8.344 5,10L5,16C5,17.656 5.31,19 5.692,19L16.308,19C16.69,19 17,17.656 17,16L17,10Z" style="fill:rgb(17,16,47);"/>
                </g>
                <g transform="matrix(0.439254,0,0,1.56877,-7.69415,22.2042)">
                    <text x="57.089px" y="5.462px" style="font-family:'MicrosoftSansSerif', 'Microsoft Sans Serif', sans-serif;font-size:6.324px;fill:white;">fraudulent</text>
                </g>
            </g>
            <g transform="matrix(0.892857,0,0,1.4,10.7143,33.3333)">
                <g transform="matrix(2.88889,0,0,2.38095,-7.77778,-2.38095)">
                    <path d="M17,10C17,8.344 16.69,7 16.308,7L5.692,7C5.31,7 5,8.344 5,10L5,16C5,17.656 5.31,19 5.692,19L16.308,19C16.69,19 17,17.656 17,16L17,10Z" style="fill:rgb(17,16,47);"/>
                </g>
                <g transform="matrix(0.439254,0,0,1.56877,-13.0275,22.2042)">
                    <text x="57.089px" y="5.462px" style="font-family:'MicrosoftSansSerif', 'Microsoft Sans Serif', sans-serif;font-size:6.324px;fill:white;">has_company_logo</text>
                </g>
            </g>
        </g>
    </g>
</svg>
