<?xml version="1.0" encoding="UTF-8" standalone="no"?>
<!DOCTYPE svg PUBLIC "-//W3C//DTD SVG 1.1//EN" "http://www.w3.org/Graphics/SVG/1.1/DTD/svg11.dtd">
<svg width="100%" height="100%" viewBox="0 0 136 36" version="1.1" xmlns="http://www.w3.org/2000/svg" xmlns:xlink="http://www.w3.org/1999/xlink" xml:space="preserve" xmlns:serif="http://www.serif.com/" style="fill-rule:evenodd;clip-rule:evenodd;stroke-linecap:round;stroke-linejoin:round;stroke-miterlimit:1.5;">
    <g transform="matrix(1,0,0,1,-399,0)">
        <g id="Artboard10" transform="matrix(1.36,0,0,0.36,399,0)">
            <rect x="0" y="0" width="100" height="100" style="fill:none;"/>
            <g transform="matrix(0.36619,0,0,0.397279,4.91168,16.5468)">
                <g transform="matrix(5.62229,0,0,17.8296,-21.4448,-159.465)">
                    <rect x="5" y="7" width="12" height="12" style="fill:rgb(7,0,218);fill-opacity:0;"/>
                    <clipPath id="_clip1">
                        <rect x="5" y="7" width="12" height="12"/>
                    </clipPath>
                    <g clip-path="url(#_clip1)">
                        <g transform="matrix(0.510204,0,0,0.392157,-203.929,7)">
                            <rect x="413" y="4" width="7" height="27" style="fill:rgb(199,93,93);"/>
                        </g>
                        <g transform="matrix(0.510204,0,0,0.0580973,-199.286,17.3558)">
                            <rect x="413" y="4" width="7" height="27" style="fill:rgb(199,150,93);"/>
                        </g>
                    </g>
                    <rect x="5" y="7" width="12" height="12" style="fill:none;stroke:rgb(4,0,129);stroke-width:0.16px;"/>
                </g>
                <g>
                    <g transform="matrix(2.00796,0,0,6.992,-808.565,84.2057)">
                        <text x="416.127px" y="14.925px" style="font-family:'MicrosoftSansSerif', 'Microsoft Sans Serif', sans-serif;font-size:1.25px;fill:rgb(190,190,190);">0</text>
                    </g>
                    <g transform="matrix(2.00796,0,0,6.992,-806.557,98.1897)">
                        <text x="416.127px" y="14.925px" style="font-family:'MicrosoftSansSerif', 'Microsoft Sans Serif', sans-serif;font-size:1.25px;fill:rgb(104,104,104);">telecommuting</text>
                    </g>
                    <g transform="matrix(2.00796,0,0,6.992,-784.469,84.2057)">
                        <text x="416.127px" y="14.925px" style="font-family:'MicrosoftSansSerif', 'Microsoft Sans Serif', sans-serif;font-size:1.25px;fill:rgb(190,190,190);">1</text>
                    </g>
                </g>
            </g>
            <g transform="matrix(0.36619,0,0,0.397279,4.91168,16.5468)">
                <g transform="matrix(5.62229,0,0,17.8296,54.8577,-159.465)">
                    <rect x="5" y="7" width="12" height="12" style="fill:rgb(7,0,218);fill-opacity:0;"/>
                    <clipPath id="_clip2">
                        <rect x="5" y="7" width="12" height="12"/>
                    </clipPath>
                    <g clip-path="url(#_clip2)">
                        <g transform="matrix(0.510204,0,0,0.0290487,-203.929,18.2564)">
                            <rect x="413" y="4" width="7" height="27" style="fill:rgb(199,93,93);"/>
                        </g>
                        <g transform="matrix(0.510204,0,0,0.421206,-199.286,6.09949)">
                            <rect x="413" y="4" width="7" height="27" style="fill:rgb(199,150,93);"/>
                        </g>
                    </g>
                    <rect x="5" y="7" width="12" height="12" style="fill:none;stroke:rgb(4,0,129);stroke-width:0.16px;"/>
                </g>
                <g transform="matrix(1,0,0,1,76.3024,0)">
                    <g transform="matrix(2.00796,0,0,6.992,-808.565,84.2057)">
                        <text x="416.127px" y="14.925px" style="font-family:'MicrosoftSansSerif', 'Microsoft Sans Serif', sans-serif;font-size:1.25px;fill:rgb(190,190,190);">0</text>
                    </g>
                    <g transform="matrix(2.00796,0,0,6.992,-806.557,98.1897)">
                        <text x="416.127px" y="14.925px" style="font-family:'MicrosoftSansSerif', 'Microsoft Sans Serif', sans-serif;font-size:1.25px;fill:rgb(104,104,104);">has_company_logo</text>
                    </g>
                    <g transform="matrix(2.00796,0,0,6.992,-784.469,84.2057)">
                        <text x="416.127px" y="14.925px" style="font-family:'MicrosoftSansSerif', 'Microsoft Sans Serif', sans-serif;font-size:1.25px;fill:rgb(190,190,190);">1</text>
                    </g>
                </g>
            </g>
            <g transform="matrix(0.36619,0,0,0.397279,32.8529,16.5468)">
                <g transform="matrix(5.62229,0,0,17.8296,54.8577,-159.465)">
                    <rect x="5" y="7" width="12" height="12" style="fill:rgb(7,0,218);fill-opacity:0;"/>
                    <clipPath id="_clip3">
                        <rect x="5" y="7" width="12" height="12"/>
                    </clipPath>
                    <g clip-path="url(#_clip3)">
                        <g transform="matrix(0.510204,0,0,0.130719,-203.929,15.1046)">
                            <rect x="413" y="4" width="7" height="27" style="fill:rgb(199,93,93);"/>
                        </g>
                        <g transform="matrix(0.510204,0,0,0.290487,-199.286,10.1518)">
                            <rect x="413" y="4" width="7" height="27" style="fill:rgb(199,150,93);"/>
                        </g>
                    </g>
                    <rect x="5" y="7" width="12" height="12" style="fill:none;stroke:rgb(4,0,129);stroke-width:0.16px;"/>
                </g>
                <g transform="matrix(1,0,0,1,76.3024,0)">
                    <g transform="matrix(2.00796,0,0,6.992,-808.565,84.2057)">
                        <text x="416.127px" y="14.925px" style="font-family:'MicrosoftSansSerif', 'Microsoft Sans Serif', sans-serif;font-size:1.25px;fill:rgb(190,190,190);">0</text>
                    </g>
                    <g transform="matrix(2.00796,0,0,6.992,-804.549,98.1897)">
                        <text x="416.127px" y="14.925px" style="font-family:'MicrosoftSansSerif', 'Microsoft Sans Serif', sans-serif;font-size:1.25px;fill:rgb(104,104,104);">has_questions</text>
                    </g>
                    <g transform="matrix(2.00796,0,0,6.992,-784.469,84.2057)">
                        <text x="416.127px" y="14.925px" style="font-family:'MicrosoftSansSerif', 'Microsoft Sans Serif', sans-serif;font-size:1.25px;fill:rgb(190,190,190);">1</text>
                    </g>
                </g>
            </g>
            <g transform="matrix(0.36619,0,0,0.397279,4.91168,16.5468)">
                <g transform="matrix(2.00796,0,0,6.992,-832.66,77.2137)">
                    <text x="416.127px" y="14.925px" style="font-family:'MicrosoftSansSerif', 'Microsoft Sans Serif', sans-serif;font-size:1.25px;fill:rgb(190,190,190);">0</text>
                </g>
                <g transform="matrix(2.00796,0,0,6.992,-834.668,49.2457)">
                    <text x="416.127px" y="14.925px" style="font-family:'MicrosoftSansSerif', 'Microsoft Sans Serif', sans-serif;font-size:1.25px;fill:rgb(190,190,190);">100</text>
                </g>
                <g transform="matrix(2.00796,0,0,6.992,-834.668,21.2777)">
                    <text x="416.127px" y="14.925px" style="font-family:'MicrosoftSansSerif', 'Microsoft Sans Serif', sans-serif;font-size:1.25px;fill:rgb(190,190,190);">200</text>
                </g>
                <g transform="matrix(2.00796,0,0,6.992,-834.668,-6.69029)">
                    <text x="416.127px" y="14.925px" style="font-family:'MicrosoftSansSerif', 'Microsoft Sans Serif', sans-serif;font-size:1.25px;fill:rgb(190,190,190);">300</text>
                </g>
                <g transform="matrix(2.00796,0,0,6.992,-834.668,-34.6583)">
                    <text x="416.127px" y="14.925px" style="font-family:'MicrosoftSansSerif', 'Microsoft Sans Serif', sans-serif;font-size:1.25px;fill:rgb(190,190,190);">400</text>
                </g>
                <g transform="matrix(2.00796,0,0,6.992,-834.668,-62.6263)">
                    <text x="416.127px" y="14.925px" style="font-family:'MicrosoftSansSerif', 'Microsoft Sans Serif', sans-serif;font-size:1.25px;fill:rgb(190,190,190);">500</text>
                </g>
                <g transform="matrix(2.00796,0,0,6.992,-834.668,-90.5943)">
                    <text x="416.127px" y="14.925px" style="font-family:'MicrosoftSansSerif', 'Microsoft Sans Serif', sans-serif;font-size:1.25px;fill:rgb(190,190,190);">600</text>
                </g>
                <g transform="matrix(2.00796,0,0,6.992,-834.668,-118.562)">
                    <text x="416.127px" y="14.925px" style="font-family:'MicrosoftSansSerif', 'Microsoft Sans Serif', sans-serif;font-size:1.25px;fill:rgb(190,190,190);">700</text>
                </g>
            </g>
        </g>
    </g>
</svg>
