<?xml version="1.0" encoding="UTF-8" standalone="no"?>
<!DOCTYPE svg PUBLIC "-//W3C//DTD SVG 1.1//EN" "http://www.w3.org/Graphics/SVG/1.1/DTD/svg11.dtd">
<svg width="100%" height="100%" viewBox="0 0 102 14" version="1.1" xmlns="http://www.w3.org/2000/svg" xmlns:xlink="http://www.w3.org/1999/xlink" xml:space="preserve" xmlns:serif="http://www.serif.com/" style="fill-rule:evenodd;clip-rule:evenodd;stroke-linejoin:round;stroke-miterlimit:2;">
    <g transform="matrix(1,0,0,1,-228,-56)">
        <g id="Artboard7" transform="matrix(1.02,0,0,0.14,228,56)">
            <rect x="0" y="0" width="100" height="100" style="fill:none;"/>
            <g transform="matrix(0.488253,0,0,1.02158,7.52929,-7.45108)">
                <g transform="matrix(4.44444,0,0,6.74603,-15.5556,-32.9365)">
                    <path d="M17,10C17,8.344 16.414,7 15.692,7L6.308,7C5.586,7 5,8.344 5,10L5,16C5,17.656 5.586,19 6.308,19L15.692,19C16.414,19 17,17.656 17,16L17,10Z" style="fill:rgb(17,16,47);"/>
                </g>
                <g transform="matrix(0.439254,0,0,1.56877,-11.7283,22.2042)">
                    <text x="57.089px" y="5.462px" style="font-family:'MicrosoftSansSerif', 'Microsoft Sans Serif', sans-serif;font-size:6.324px;fill:white;">telecommuting</text>
                </g>
                <g transform="matrix(0.439254,0,0,1.56877,-3.52321,50.7756)">
                    <text x="57.089px" y="5.462px" style="font-family:'MicrosoftSansSerif', 'Microsoft Sans Serif', sans-serif;font-size:8.853px;fill:rgb(190,190,190);">0</text>
                </g>
                <g transform="matrix(0.439254,0,0,1.56877,-3.52321,74.5851)">
                    <text x="57.089px" y="5.462px" style="font-family:'MicrosoftSansSerif', 'Microsoft Sans Serif', sans-serif;font-size:8.853px;fill:rgb(190,190,190);">1</text>
                </g>
                <g transform="matrix(0.439254,0,0,1.56877,11.5195,50.7756)">
                    <text x="57.089px" y="5.462px" style="font-family:'MicrosoftSansSerif', 'Microsoft Sans Serif', sans-serif;font-size:8.853px;fill:rgb(190,190,190);">0.084165</text>
                </g>
                <g transform="matrix(0.439254,0,0,1.56877,11.5195,74.5851)">
                    <text x="57.089px" y="5.462px" style="font-family:'MicrosoftSansSerif', 'Microsoft Sans Serif', sans-serif;font-size:8.853px;fill:rgb(190,190,190);">0.178082</text>
                </g>
                <g transform="matrix(0.439254,0,0,1.56877,13.605,22.2042)">
                    <text x="57.089px" y="5.462px" style="font-family:'MicrosoftSansSerif', 'Microsoft Sans Serif', sans-serif;font-size:6.324px;fill:white;">fraudulent</text>
                </g>
                <g transform="matrix(2.5121e-17,-1.42857,2.9304,6.2482e-16,-150.393,405.952)">
                    <rect x="257" y="56" width="1" height="14" style="fill:white;"/>
                </g>
            </g>
            <g transform="matrix(0.488253,0,0,1.02158,33.9999,-7.45108)">
                <g transform="matrix(4.44444,0,0,6.74603,-15.5556,-32.9365)">
                    <path d="M17,10C17,8.344 16.414,7 15.692,7L6.308,7C5.586,7 5,8.344 5,10L5,16C5,17.656 5.586,19 6.308,19L15.692,19C16.414,19 17,17.656 17,16L17,10Z" style="fill:rgb(17,16,47);"/>
                </g>
                <g transform="matrix(0.439254,0,0,1.56877,-11.7283,22.2042)">
                    <text x="57.089px" y="5.462px" style="font-family:'MicrosoftSansSerif', 'Microsoft Sans Serif', sans-serif;font-size:6.324px;fill:white;">has_company_logo</text>
                </g>
                <g transform="matrix(0.439254,0,0,1.56877,-3.52321,50.7756)">
                    <text x="57.089px" y="5.462px" style="font-family:'MicrosoftSansSerif', 'Microsoft Sans Serif', sans-serif;font-size:8.853px;fill:rgb(190,190,190);">0</text>
                </g>
                <g transform="matrix(0.439254,0,0,1.56877,-3.52321,74.5851)">
                    <text x="57.089px" y="5.462px" style="font-family:'MicrosoftSansSerif', 'Microsoft Sans Serif', sans-serif;font-size:8.853px;fill:rgb(190,190,190);">1</text>
                </g>
                <g transform="matrix(0.439254,0,0,1.56877,13.5275,50.7756)">
                    <text x="57.089px" y="5.462px" style="font-family:'MicrosoftSansSerif', 'Microsoft Sans Serif', sans-serif;font-size:8.853px;fill:rgb(190,190,190);">0.235294</text>
                </g>
                <g transform="matrix(0.439254,0,0,1.56877,13.5275,74.5851)">
                    <text x="57.089px" y="5.462px" style="font-family:'MicrosoftSansSerif', 'Microsoft Sans Serif', sans-serif;font-size:8.853px;fill:rgb(190,190,190);">0.089828</text>
                </g>
                <g transform="matrix(0.439254,0,0,1.56877,15.613,22.2042)">
                    <text x="57.089px" y="5.462px" style="font-family:'MicrosoftSansSerif', 'Microsoft Sans Serif', sans-serif;font-size:6.324px;fill:white;">fraudulent</text>
                </g>
                <g transform="matrix(2.5121e-17,-1.42857,2.9304,6.2482e-16,-150.393,405.952)">
                    <rect x="257" y="56" width="1" height="14" style="fill:white;"/>
                </g>
            </g>
            <g transform="matrix(0.488253,0,0,1.02158,60.4705,-7.45108)">
                <g transform="matrix(4.44444,0,0,6.74603,-15.5556,-32.9365)">
                    <path d="M17,10C17,8.344 16.414,7 15.692,7L6.308,7C5.586,7 5,8.344 5,10L5,16C5,17.656 5.586,19 6.308,19L15.692,19C16.414,19 17,17.656 17,16L17,10Z" style="fill:rgb(17,16,47);"/>
                </g>
                <g transform="matrix(0.439254,0,0,1.56877,-11.7283,22.2042)">
                    <text x="57.089px" y="5.462px" style="font-family:'MicrosoftSansSerif', 'Microsoft Sans Serif', sans-serif;font-size:6.324px;fill:white;">has_questions</text>
                </g>
                <g transform="matrix(0.439254,0,0,1.56877,-3.52321,50.7756)">
                    <text x="57.089px" y="5.462px" style="font-family:'MicrosoftSansSerif', 'Microsoft Sans Serif', sans-serif;font-size:8.853px;fill:rgb(190,190,190);">0</text>
                </g>
                <g transform="matrix(0.439254,0,0,1.56877,-3.52321,74.5851)">
                    <text x="57.089px" y="5.462px" style="font-family:'MicrosoftSansSerif', 'Microsoft Sans Serif', sans-serif;font-size:8.853px;fill:rgb(190,190,190);">1</text>
                </g>
                <g transform="matrix(0.439254,0,0,1.56877,11.5195,50.7756)">
                    <text x="57.089px" y="5.462px" style="font-family:'MicrosoftSansSerif', 'Microsoft Sans Serif', sans-serif;font-size:8.853px;fill:rgb(190,190,190);">0.090909</text>
                </g>
                <g transform="matrix(0.439254,0,0,1.56877,11.5195,74.5851)">
                    <text x="57.089px" y="5.462px" style="font-family:'MicrosoftSansSerif', 'Microsoft Sans Serif', sans-serif;font-size:8.853px;fill:rgb(190,190,190);">0.094050</text>
                </g>
                <g transform="matrix(0.439254,0,0,1.56877,13.605,22.2042)">
                    <text x="57.089px" y="5.462px" style="font-family:'MicrosoftSansSerif', 'Microsoft Sans Serif', sans-serif;font-size:6.324px;fill:white;">fraudulent</text>
                </g>
                <g transform="matrix(2.5121e-17,-1.42857,2.9304,6.2482e-16,-150.393,405.952)">
                    <rect x="257" y="56" width="1" height="14" style="fill:white;"/>
                </g>
            </g>
        </g>
    </g>
</svg>
