<?xml version="1.0" encoding="UTF-8" standalone="no"?>
<!DOCTYPE svg PUBLIC "-//W3C//DTD SVG 1.1//EN" "http://www.w3.org/Graphics/SVG/1.1/DTD/svg11.dtd">
<svg width="100%" height="100%" viewBox="0 0 110 7" version="1.1" xmlns="http://www.w3.org/2000/svg" xmlns:xlink="http://www.w3.org/1999/xlink" xml:space="preserve" xmlns:serif="http://www.serif.com/" style="fill-rule:evenodd;clip-rule:evenodd;stroke-linejoin:round;stroke-miterlimit:2;">
    <g transform="matrix(1,0,0,1,-352,-21)">
        <g id="c3" transform="matrix(1.1,0,0,0.07,352,21)">
            <rect x="0" y="0" width="100" height="100" style="fill:none;"/>
            <g transform="matrix(0.681818,0,0,3,-0.909091,-28.5714)">
                <g transform="matrix(10.8889,0,0,1.98413,-47.7778,0.396825)">
                    <path d="M17,10C17,8.344 16.931,7 16.847,7L5.153,7C5.069,7 5,8.344 5,10L5,16C5,17.656 5.069,19 5.153,19L16.847,19C16.931,19 17,17.656 17,16L17,10Z" style="fill:rgb(73,73,73);"/>
                </g>
                <g transform="matrix(0.439254,0,0,1.56877,-10.3608,22.2042)">
                    <text x="57.089px" y="5.462px" style="font-family:'MicrosoftSansSerif', 'Microsoft Sans Serif', sans-serif;font-size:6.324px;fill:rgb(171,171,171);">df.fraudulent.value_counts()</text>
                </g>
            </g>
        </g>
    </g>
</svg>
