<?xml version="1.0" encoding="UTF-8" standalone="no"?>
<!DOCTYPE svg PUBLIC "-//W3C//DTD SVG 1.1//EN" "http://www.w3.org/Graphics/SVG/1.1/DTD/svg11.dtd">
<svg width="100%" height="100%" viewBox="0 0 110 25" version="1.1" xmlns="http://www.w3.org/2000/svg" xmlns:xlink="http://www.w3.org/1999/xlink" xml:space="preserve" xmlns:serif="http://www.serif.com/" style="fill-rule:evenodd;clip-rule:evenodd;stroke-linejoin:round;stroke-miterlimit:2;">
    <g transform="matrix(1,0,0,1,-352,-31)">
        <g id="c4" transform="matrix(1.1,0,0,0.25,352,31)">
            <rect x="0" y="0" width="100" height="100" style="fill:none;"/>
            <g transform="matrix(0.681818,0,0,0.84,-0.909091,-8)">
                <g transform="matrix(10.8889,0,0,9.12698,-47.7778,-49.6032)">
                    <path d="M17,10C17,8.344 16.685,7 16.296,7L5.704,7C5.315,7 5,8.344 5,10L5,16C5,17.656 5.315,19 5.704,19L16.296,19C16.685,19 17,17.656 17,16L17,10Z" style="fill:rgb(73,73,73);"/>
                </g>
                <g transform="matrix(0.439254,0,0,1.56877,-10.3608,22.2042)">
                    <text x="57.089px" y="5.462px" style="font-family:'MicrosoftSansSerif', 'Microsoft Sans Serif', sans-serif;font-size:6.324px;fill:rgb(171,171,171);">columns = df.columns</text>
                    <text x="57.089px" y="13.051px" style="font-family:'MicrosoftSansSerif', 'Microsoft Sans Serif', sans-serif;font-size:6.324px;fill:rgb(171,171,171);">binary_cols = []</text>
                    <text x="57.089px" y="28.228px" style="font-family:'MicrosoftSansSerif', 'Microsoft Sans Serif', sans-serif;font-size:6.324px;fill:rgb(171,171,171);">for col in columns:</text>
                    <text x="63.808px" y="35.817px" style="font-family:'MicrosoftSansSerif', 'Microsoft Sans Serif', sans-serif;font-size:6.324px;fill:rgb(171,171,171);">if df[col].value_counts().shape[0] == 2:</text>
                    <text x="70.527px" y="43.406px" style="font-family:'MicrosoftSansSerif', 'Microsoft Sans Serif', sans-serif;font-size:6.324px;fill:rgb(171,171,171);">binary_cols.append(col)</text>
                    <text x="57.089px" y="58.583px" style="font-family:'MicrosoftSansSerif', 'Microsoft Sans Serif', sans-serif;font-size:6.324px;fill:rgb(171,171,171);">binary_cols</text>
                </g>
            </g>
        </g>
    </g>
</svg>
