<?xml version="1.0" encoding="UTF-8" standalone="no"?>
<!DOCTYPE svg PUBLIC "-//W3C//DTD SVG 1.1//EN" "http://www.w3.org/Graphics/SVG/1.1/DTD/svg11.dtd">
<svg width="100%" height="100%" viewBox="0 0 110 18" version="1.1" xmlns="http://www.w3.org/2000/svg" xmlns:xlink="http://www.w3.org/1999/xlink" xml:space="preserve" xmlns:serif="http://www.serif.com/" style="fill-rule:evenodd;clip-rule:evenodd;stroke-linejoin:round;stroke-miterlimit:2;">
    <g transform="matrix(1,0,0,1,-352,-59)">
        <g id="c5" transform="matrix(1.1,0,0,0.18,352,59)">
            <rect x="0" y="0" width="100" height="100" style="fill:none;"/>
            <g transform="matrix(0.681818,0,0,1.16667,-0.909091,-11.1111)">
                <g transform="matrix(10.8889,0,0,6.34921,-47.7778,-30.1587)">
                    <path d="M17,10C17,8.344 16.781,7 16.51,7L5.49,7C5.219,7 5,8.344 5,10L5,16C5,17.656 5.219,19 5.49,19L16.51,19C16.781,19 17,17.656 17,16L17,10Z" style="fill:rgb(73,73,73);"/>
                </g>
                <g transform="matrix(0.439254,0,0,1.56877,-10.3608,22.2042)">
                    <text x="57.089px" y="5.462px" style="font-family:'MicrosoftSansSerif', 'Microsoft Sans Serif', sans-serif;font-size:6.324px;fill:rgb(171,171,171);">df[[&apos;has_company_logo&apos;, &apos;fraudulent&apos;]].groupby([&apos;has_company_logo&apos;]).mean()</text>
                    <text x="57.089px" y="20.64px" style="font-family:'MicrosoftSansSerif', 'Microsoft Sans Serif', sans-serif;font-size:6.324px;fill:rgb(171,171,171);">df[[&apos;telecommuting&apos;, &apos;fraudulent&apos;]].groupby([&apos;telecommuting&apos;]).mean()</text>
                    <text x="57.089px" y="35.817px" style="font-family:'MicrosoftSansSerif', 'Microsoft Sans Serif', sans-serif;font-size:6.324px;fill:rgb(171,171,171);">df[[&apos;has_questions&apos;, &apos;fraudulent&apos;]].groupby([&apos;has_questions&apos;]).mean()</text>
                </g>
            </g>
        </g>
    </g>
</svg>
