<?xml version="1.0" encoding="UTF-8" standalone="no"?>
<!DOCTYPE svg PUBLIC "-//W3C//DTD SVG 1.1//EN" "http://www.w3.org/Graphics/SVG/1.1/DTD/svg11.dtd">
<svg width="100%" height="100%" viewBox="0 0 156 43" version="1.1" xmlns="http://www.w3.org/2000/svg" xmlns:xlink="http://www.w3.org/1999/xlink" xml:space="preserve" xmlns:serif="http://www.serif.com/" style="fill-rule:evenodd;clip-rule:evenodd;stroke-linejoin:round;stroke-miterlimit:2;">
    <g transform="matrix(1,0,0,1,-390,-2)">
        <g id="c8" transform="matrix(1.56,0,0,0.43,390,2)">
            <rect x="0" y="0" width="100" height="100" style="fill:none;"/>
            <g transform="matrix(0.480769,0,0,0.488372,-0.641026,-4.65116)">
                <g transform="matrix(10.8889,0,0,6.34921,-47.7778,-30.1587)">
                    <path d="M17,10C17,8.344 16.781,7 16.51,7L5.49,7C5.219,7 5,8.344 5,10L5,16C5,17.656 5.219,19 5.49,19L16.51,19C16.781,19 17,17.656 17,16L17,10Z" style="fill:rgb(73,73,73);"/>
                </g>
                <g transform="matrix(0.439254,0,0,1.56877,-10.3608,22.2042)">
                    <text x="57.089px" y="5.462px" style="font-family:'MicrosoftSansSerif', 'Microsoft Sans Serif', sans-serif;font-size:6.324px;fill:rgb(171,171,171);">df[[&apos;employment_type&apos;, &apos;fraudulent&apos;]].groupby([&apos;employment_type&apos;]).mean()</text>
                    <text x="57.089px" y="20.64px" style="font-family:'MicrosoftSansSerif', 'Microsoft Sans Serif', sans-serif;font-size:6.324px;fill:rgb(171,171,171);">df[[&apos;required_experience&apos;, &apos;fraudulent&apos;]].groupby([&apos;required_experience&apos;]).mean()</text>
                    <text x="57.089px" y="35.817px" style="font-family:'MicrosoftSansSerif', 'Microsoft Sans Serif', sans-serif;font-size:6.324px;fill:rgb(171,171,171);">df[[&apos;required_education&apos;, &apos;fraudulent&apos;]].groupby([&apos;required_education&apos;]).mean()</text>
                </g>
            </g>
            <g transform="matrix(0.319242,0,0,0.332606,0.43582,37.109)">
                <g transform="matrix(5.62229,0,0,13.7509,-21.4448,-81.9708)">
                    <path d="M17,10C17,8.344 16.056,7 14.893,7L7.107,7C5.944,7 5,8.344 5,10L5,16C5,17.656 5.944,19 7.107,19L14.893,19C16.056,19 17,17.656 17,16L17,10Z" style="fill:rgb(17,16,47);"/>
                </g>
                <g transform="matrix(0.439254,0,0,1.56877,-5.70446,36.1882)">
                    <text x="57.089px" y="5.462px" style="font-family:'MicrosoftSansSerif', 'Microsoft Sans Serif', sans-serif;font-size:6.324px;fill:white;">employment_type</text>
                </g>
                <g transform="matrix(0.439254,0,0,1.56877,-5.53117,71.7516)">
                    <text x="57.089px" y="5.462px" style="font-family:'MicrosoftSansSerif', 'Microsoft Sans Serif', sans-serif;font-size:8.853px;fill:rgb(190,190,190);">Contract</text>
                </g>
                <g transform="matrix(0.439254,0,0,1.56877,17.5434,71.7516)">
                    <text x="57.089px" y="5.462px" style="font-family:'MicrosoftSansSerif', 'Microsoft Sans Serif', sans-serif;font-size:8.853px;fill:rgb(190,190,190);">0.028571</text>
                </g>
                <g transform="matrix(0.439254,0,0,1.56877,-5.53117,95.5611)">
                    <text x="57.089px" y="5.462px" style="font-family:'MicrosoftSansSerif', 'Microsoft Sans Serif', sans-serif;font-size:8.853px;fill:rgb(190,190,190);">Full-time</text>
                </g>
                <g transform="matrix(0.439254,0,0,1.56877,17.5434,95.5611)">
                    <text x="57.089px" y="5.462px" style="font-family:'MicrosoftSansSerif', 'Microsoft Sans Serif', sans-serif;font-size:8.853px;fill:rgb(190,190,190);">0.094101</text>
                </g>
                <g transform="matrix(0.439254,0,0,1.56877,-5.53117,120.696)">
                    <text x="57.089px" y="5.462px" style="font-family:'MicrosoftSansSerif', 'Microsoft Sans Serif', sans-serif;font-size:8.853px;fill:rgb(190,190,190);">Part-time</text>
                </g>
                <g transform="matrix(0.439254,0,0,1.56877,17.5434,120.696)">
                    <text x="57.089px" y="5.462px" style="font-family:'MicrosoftSansSerif', 'Microsoft Sans Serif', sans-serif;font-size:8.853px;fill:rgb(190,190,190);">0.235294</text>
                </g>
                <g transform="matrix(0.439254,0,0,1.56877,-5.53117,144.505)">
                    <text x="57.089px" y="5.462px" style="font-family:'MicrosoftSansSerif', 'Microsoft Sans Serif', sans-serif;font-size:8.853px;fill:rgb(190,190,190);">Temporary</text>
                </g>
                <g transform="matrix(0.439254,0,0,1.56877,17.5434,144.505)">
                    <text x="57.089px" y="5.462px" style="font-family:'MicrosoftSansSerif', 'Microsoft Sans Serif', sans-serif;font-size:8.853px;fill:rgb(190,190,190);">0.000000</text>
                </g>
                <g transform="matrix(0.439254,0,0,1.56877,19.6289,36.1882)">
                    <text x="57.089px" y="5.462px" style="font-family:'MicrosoftSansSerif', 'Microsoft Sans Serif', sans-serif;font-size:6.324px;fill:white;">fraudulent</text>
                </g>
                <g transform="matrix(2.5121e-17,-1.42857,2.9304,6.2482e-16,-144.369,419.936)">
                    <rect x="257" y="56" width="1" height="14" style="fill:white;"/>
                </g>
            </g>
            <g transform="matrix(0.319242,0,0,0.332606,24.1538,37.109)">
                <g transform="matrix(5.62229,0,0,13.738,-21.4448,-81.8805)">
                    <path d="M17,10C17,8.344 16.057,7 14.895,7L7.105,7C5.943,7 5,8.344 5,10L5,16C5,17.656 5.943,19 7.105,19L14.895,19C16.057,19 17,17.656 17,16L17,10Z" style="fill:rgb(17,16,47);"/>
                </g>
                <g transform="matrix(0.439254,0,0,1.56877,-9.72038,36.1882)">
                    <text x="57.089px" y="5.462px" style="font-family:'MicrosoftSansSerif', 'Microsoft Sans Serif', sans-serif;font-size:6.324px;fill:white;">required_experience</text>
                </g>
                <g transform="matrix(0.439254,0,0,1.56877,-9.54708,71.7516)">
                    <text x="57.089px" y="5.462px" style="font-family:'MicrosoftSansSerif', 'Microsoft Sans Serif', sans-serif;font-size:8.853px;fill:rgb(190,190,190);">Associate</text>
                </g>
                <g transform="matrix(0.439254,0,0,1.56877,21.5593,71.7516)">
                    <text x="57.089px" y="5.462px" style="font-family:'MicrosoftSansSerif', 'Microsoft Sans Serif', sans-serif;font-size:8.853px;fill:rgb(190,190,190);">0.065327</text>
                </g>
                <g transform="matrix(0.439254,0,0,1.56877,-9.54708,95.5611)">
                    <text x="57.089px" y="5.462px" style="font-family:'MicrosoftSansSerif', 'Microsoft Sans Serif', sans-serif;font-size:8.853px;fill:rgb(190,190,190);">Director</text>
                </g>
                <g transform="matrix(0.439254,0,0,1.56877,21.5593,95.5611)">
                    <text x="57.089px" y="5.462px" style="font-family:'MicrosoftSansSerif', 'Microsoft Sans Serif', sans-serif;font-size:8.853px;fill:rgb(190,190,190);">0.040000</text>
                </g>
                <g transform="matrix(0.439254,0,0,1.56877,-9.54708,120.696)">
                    <text x="57.089px" y="5.462px" style="font-family:'MicrosoftSansSerif', 'Microsoft Sans Serif', sans-serif;font-size:8.853px;fill:rgb(190,190,190);">Entry Level</text>
                </g>
                <g transform="matrix(0.439254,0,0,1.56877,21.5593,120.696)">
                    <text x="57.089px" y="5.462px" style="font-family:'MicrosoftSansSerif', 'Microsoft Sans Serif', sans-serif;font-size:8.853px;fill:rgb(190,190,190);">0.204188</text>
                </g>
                <g transform="matrix(0.439254,0,0,1.56877,-9.54708,144.505)">
                    <text x="57.089px" y="5.462px" style="font-family:'MicrosoftSansSerif', 'Microsoft Sans Serif', sans-serif;font-size:8.853px;fill:rgb(190,190,190);">Mid Senior Level</text>
                </g>
                <g transform="matrix(0.439254,0,0,1.56877,21.5593,144.505)">
                    <text x="57.089px" y="5.462px" style="font-family:'MicrosoftSansSerif', 'Microsoft Sans Serif', sans-serif;font-size:8.853px;fill:rgb(190,190,190);">0.078838</text>
                </g>
                <g transform="matrix(0.439254,0,0,1.56877,23.6448,36.1882)">
                    <text x="57.089px" y="5.462px" style="font-family:'MicrosoftSansSerif', 'Microsoft Sans Serif', sans-serif;font-size:6.324px;fill:white;">fraudulent</text>
                </g>
                <g transform="matrix(2.5121e-17,-1.42857,3.44222,7.33948e-16,-177.047,419.936)">
                    <rect x="257" y="56" width="1" height="14" style="fill:white;"/>
                </g>
            </g>
            <g transform="matrix(0.319242,0,0,0.332606,47.8717,37.109)">
                <g transform="matrix(5.61575,0,0,13.738,-21.4121,-81.8805)">
                    <path d="M17,10C17,8.344 16.056,7 14.892,7L7.108,7C5.944,7 5,8.344 5,10L5,16C5,17.656 5.944,19 7.108,19L14.892,19C16.056,19 17,17.656 17,16L17,10Z" style="fill:rgb(17,16,47);"/>
                </g>
                <g transform="matrix(0.439254,0,0,1.56877,-11.7283,36.1882)">
                    <text x="57.089px" y="5.462px" style="font-family:'MicrosoftSansSerif', 'Microsoft Sans Serif', sans-serif;font-size:6.324px;fill:white;">required_education</text>
                </g>
                <g transform="matrix(0.439254,0,0,1.56877,-11.555,71.7516)">
                    <text x="57.089px" y="5.462px" style="font-family:'MicrosoftSansSerif', 'Microsoft Sans Serif', sans-serif;font-size:8.853px;fill:rgb(190,190,190);">Bachelor Degree</text>
                </g>
                <g transform="matrix(0.439254,0,0,1.56877,25.5752,71.7516)">
                    <text x="57.089px" y="5.462px" style="font-family:'MicrosoftSansSerif', 'Microsoft Sans Serif', sans-serif;font-size:8.853px;fill:rgb(190,190,190);">0.020942</text>
                </g>
                <g transform="matrix(0.439254,0,0,1.56877,-11.555,95.5611)">
                    <text x="57.089px" y="5.462px" style="font-family:'MicrosoftSansSerif', 'Microsoft Sans Serif', sans-serif;font-size:8.853px;fill:rgb(190,190,190);">Certiﬁcation</text>
                </g>
                <g transform="matrix(0.439254,0,0,1.56877,25.5752,95.5611)">
                    <text x="57.089px" y="5.462px" style="font-family:'MicrosoftSansSerif', 'Microsoft Sans Serif', sans-serif;font-size:8.853px;fill:rgb(190,190,190);">0.400000</text>
                </g>
                <g transform="matrix(0.439254,0,0,1.56877,-11.555,120.696)">
                    <text x="57.089px" y="5.462px" style="font-family:'MicrosoftSansSerif', 'Microsoft Sans Serif', sans-serif;font-size:8.853px;fill:rgb(190,190,190);">High School</text>
                </g>
                <g transform="matrix(0.439254,0,0,1.56877,25.5752,120.696)">
                    <text x="57.089px" y="5.462px" style="font-family:'MicrosoftSansSerif', 'Microsoft Sans Serif', sans-serif;font-size:8.853px;fill:rgb(190,190,190);">0.318436</text>
                </g>
                <g transform="matrix(0.439254,0,0,1.56877,-11.555,144.505)">
                    <text x="57.089px" y="5.462px" style="font-family:'MicrosoftSansSerif', 'Microsoft Sans Serif', sans-serif;font-size:8.853px;fill:rgb(190,190,190);">College Coursework</text>
                </g>
                <g transform="matrix(0.439254,0,0,1.56877,25.5752,144.505)">
                    <text x="57.089px" y="5.462px" style="font-family:'MicrosoftSansSerif', 'Microsoft Sans Serif', sans-serif;font-size:8.853px;fill:rgb(190,190,190);">0.111111</text>
                </g>
                <g transform="matrix(0.439254,0,0,1.56877,27.6607,36.1882)">
                    <text x="57.089px" y="5.462px" style="font-family:'MicrosoftSansSerif', 'Microsoft Sans Serif', sans-serif;font-size:6.324px;fill:white;">fraudulent</text>
                </g>
                <g transform="matrix(2.5121e-17,-1.42857,3.87249,8.25692e-16,-203.15,419.936)">
                    <rect x="257" y="56" width="1" height="14" style="fill:white;"/>
                </g>
            </g>
        </g>
    </g>
</svg>
