<?xml version="1.0" encoding="UTF-8" standalone="no"?>
<!DOCTYPE svg PUBLIC "-//W3C//DTD SVG 1.1//EN" "http://www.w3.org/Graphics/SVG/1.1/DTD/svg11.dtd">
<svg width="100%" height="100%" viewBox="0 0 156 53" version="1.1" xmlns="http://www.w3.org/2000/svg" xmlns:xlink="http://www.w3.org/1999/xlink" xml:space="preserve" xmlns:serif="http://www.serif.com/" style="fill-rule:evenodd;clip-rule:evenodd;stroke-linejoin:round;stroke-miterlimit:2;">
    <g transform="matrix(1,0,0,1,-123,-141)">
        <g id="c1" transform="matrix(1.56,0,0,0.53,123,141)">
            <rect x="0" y="0" width="100" height="100" style="fill:none;"/>
            <g transform="matrix(0.480769,0,0,0.396226,-0.641026,-3.77358)">
                <g transform="matrix(10.8889,0,0,1.98413,-47.7778,0.396825)">
                    <path d="M17,10C17,8.344 16.931,7 16.847,7L5.153,7C5.069,7 5,8.344 5,10L5,16C5,17.656 5.069,19 5.153,19L16.847,19C16.931,19 17,17.656 17,16L17,10Z" style="fill:rgb(73,73,73);"/>
                </g>
                <g transform="matrix(0.439254,0,0,1.56877,-10.3608,22.2042)">
                    <text x="57.089px" y="5.462px" style="font-family:'MicrosoftSansSerif', 'Microsoft Sans Serif', sans-serif;font-size:6.324px;fill:rgb(171,171,171);">df.isna().sum()   # identify missing value</text>
                </g>
            </g>
            <g transform="matrix(0.641026,0,0,2.39623,-12.1795,15.0943)">
                <g transform="matrix(0.0833333,0,0,0.393701,22.5833,-1.9685)">
                    <path d="M17,7.5C17,7.224 15.656,7 14,7L8,7C6.344,7 5,7.224 5,7.5L5,18.5C5,18.776 6.344,19 8,19L14,19C15.656,19 17,18.776 17,18.5L17,7.5Z" style="fill:rgb(161,57,57);"/>
                </g>
                <g transform="matrix(2.16667,0,0,0.393701,14.1667,-1.9685)">
                    <path d="M17,10C17,8.344 16.69,7 16.308,7L5.692,7C5.31,7 5,8.344 5,10L5,16C5,17.656 5.31,19 5.692,19L16.308,19C16.69,19 17,17.656 17,16L17,10Z" style="fill:rgb(17,16,47);"/>
                </g>
                <g transform="matrix(0.329441,0,0,0.259402,9.22939,1.30935)">
                    <text x="57.089px" y="5.462px" style="font-family:'MicrosoftSansSerif', 'Microsoft Sans Serif', sans-serif;font-size:6.324px;fill:white;">job_id</text>
                    <text x="57.089px" y="13.051px" style="font-family:'MicrosoftSansSerif', 'Microsoft Sans Serif', sans-serif;font-size:6.324px;fill:rgb(142,142,142);">0</text>
                </g>
            </g>
            <g transform="matrix(0.641026,0,0,2.39623,-12.1795,15.0943)">
                <g transform="matrix(2.16667,0,0,0.393701,14.1667,3.54331)">
                    <path d="M17,10C17,8.344 16.69,7 16.308,7L5.692,7C5.31,7 5,8.344 5,10L5,16C5,17.656 5.31,19 5.692,19L16.308,19C16.69,19 17,17.656 17,16L17,10Z" style="fill:rgb(17,16,47);"/>
                </g>
                <g transform="matrix(0.329441,0,0,0.259402,9.22939,6.82116)">
                    <text x="57.089px" y="5.462px" style="font-family:'MicrosoftSansSerif', 'Microsoft Sans Serif', sans-serif;font-size:6.324px;fill:white;">title</text>
                    <text x="57.089px" y="13.051px" style="font-family:'MicrosoftSansSerif', 'Microsoft Sans Serif', sans-serif;font-size:6.324px;fill:rgb(142,142,142);">0</text>
                </g>
                <g transform="matrix(0.0833333,0,0,0.393701,22.5833,3.54331)">
                    <path d="M17,7.5C17,7.224 15.656,7 14,7L8,7C6.344,7 5,7.224 5,7.5L5,18.5C5,18.776 6.344,19 8,19L14,19C15.656,19 17,18.776 17,18.5L17,7.5Z" style="fill:rgb(161,57,57);"/>
                </g>
            </g>
            <g transform="matrix(0.641026,0,0,2.39623,-12.1795,-77.3585)">
                <g transform="matrix(0.0833333,0,0,0.393701,22.5833,47.6378)">
                    <path d="M17,7.5C17,7.224 15.656,7 14,7L8,7C6.344,7 5,7.224 5,7.5L5,18.5C5,18.776 6.344,19 8,19L14,19C15.656,19 17,18.776 17,18.5L17,7.5Z" style="fill:rgb(161,57,57);"/>
                </g>
                <g transform="matrix(2.16667,0,0,0.393701,14.1667,47.6378)">
                    <path d="M17,10C17,8.344 16.69,7 16.308,7L5.692,7C5.31,7 5,8.344 5,10L5,16C5,17.656 5.31,19 5.692,19L16.308,19C16.69,19 17,17.656 17,16L17,10Z" style="fill:rgb(17,16,47);"/>
                </g>
                <g transform="matrix(0.329441,0,0,0.259402,9.22939,50.9157)">
                    <text x="57.089px" y="5.462px" style="font-family:'MicrosoftSansSerif', 'Microsoft Sans Serif', sans-serif;font-size:6.324px;fill:white;">telecommuting</text>
                    <text x="57.089px" y="13.051px" style="font-family:'MicrosoftSansSerif', 'Microsoft Sans Serif', sans-serif;font-size:6.324px;fill:rgb(190,190,190);">0</text>
                </g>
            </g>
            <g transform="matrix(0.641026,0,0,2.39623,-12.1795,-77.3585)">
                <g transform="matrix(0.0833333,0,0,0.393701,22.5833,53.1496)">
                    <path d="M17,7.5C17,7.224 15.656,7 14,7L8,7C6.344,7 5,7.224 5,7.5L5,18.5C5,18.776 6.344,19 8,19L14,19C15.656,19 17,18.776 17,18.5L17,7.5Z" style="fill:rgb(161,57,57);"/>
                </g>
                <g transform="matrix(2.16667,0,0,0.393701,14.1667,53.1496)">
                    <path d="M17,10C17,8.344 16.69,7 16.308,7L5.692,7C5.31,7 5,8.344 5,10L5,16C5,17.656 5.31,19 5.692,19L16.308,19C16.69,19 17,17.656 17,16L17,10Z" style="fill:rgb(17,16,47);"/>
                </g>
                <g transform="matrix(0.329441,0,0,0.259402,9.22939,56.4275)">
                    <text x="57.089px" y="5.462px" style="font-family:'MicrosoftSansSerif', 'Microsoft Sans Serif', sans-serif;font-size:6.324px;fill:white;">has_company_logo</text>
                    <text x="57.089px" y="13.051px" style="font-family:'MicrosoftSansSerif', 'Microsoft Sans Serif', sans-serif;font-size:6.324px;fill:rgb(190,190,190);">0</text>
                </g>
            </g>
            <g transform="matrix(0.641026,0,0,2.39623,-12.1795,-77.3585)">
                <g transform="matrix(0.0833333,0,0,0.393701,22.5833,58.6614)">
                    <path d="M17,7.5C17,7.224 15.656,7 14,7L8,7C6.344,7 5,7.224 5,7.5L5,18.5C5,18.776 6.344,19 8,19L14,19C15.656,19 17,18.776 17,18.5L17,7.5Z" style="fill:rgb(161,57,57);"/>
                </g>
                <g transform="matrix(2.16667,0,0,0.393701,14.1667,58.6614)">
                    <path d="M17,10C17,8.344 16.69,7 16.308,7L5.692,7C5.31,7 5,8.344 5,10L5,16C5,17.656 5.31,19 5.692,19L16.308,19C16.69,19 17,17.656 17,16L17,10Z" style="fill:rgb(17,16,47);"/>
                </g>
                <g transform="matrix(0.329441,0,0,0.259402,9.22939,61.9393)">
                    <text x="57.089px" y="5.462px" style="font-family:'MicrosoftSansSerif', 'Microsoft Sans Serif', sans-serif;font-size:6.324px;fill:white;">has_questions</text>
                    <text x="57.089px" y="13.051px" style="font-family:'MicrosoftSansSerif', 'Microsoft Sans Serif', sans-serif;font-size:6.324px;fill:rgb(190,190,190);">0</text>
                </g>
            </g>
            <g transform="matrix(0.641026,0,0,2.39623,-12.1795,-143.396)">
                <g transform="matrix(0.0833333,0,0,0.393701,22.5833,91.7323)">
                    <path d="M17,7.5C17,7.224 15.656,7 14,7L8,7C6.344,7 5,7.224 5,7.5L5,18.5C5,18.776 6.344,19 8,19L14,19C15.656,19 17,18.776 17,18.5L17,7.5Z" style="fill:rgb(161,57,57);"/>
                </g>
                <g transform="matrix(2.16667,0,0,0.393701,14.1667,91.7323)">
                    <path d="M17,10C17,8.344 16.69,7 16.308,7L5.692,7C5.31,7 5,8.344 5,10L5,16C5,17.656 5.31,19 5.692,19L16.308,19C16.69,19 17,17.656 17,16L17,10Z" style="fill:rgb(17,16,47);"/>
                </g>
                <g transform="matrix(0.329441,0,0,0.259402,9.22939,95.0101)">
                    <text x="57.089px" y="5.462px" style="font-family:'MicrosoftSansSerif', 'Microsoft Sans Serif', sans-serif;font-size:6.324px;fill:white;">fraudulent</text>
                    <text x="57.089px" y="13.051px" style="font-family:'MicrosoftSansSerif', 'Microsoft Sans Serif', sans-serif;font-size:6.324px;fill:rgb(190,190,190);">0</text>
                </g>
            </g>
            <g transform="matrix(0.641026,0,0,2.39623,13.4615,-64.1509)">
                <g transform="matrix(0.166667,0,0,0.393701,22.1667,31.1024)">
                    <path d="M17,8C17,7.448 15.656,7 14,7L8,7C6.344,7 5,7.448 5,8L5,18C5,18.552 6.344,19 8,19L14,19C15.656,19 17,18.552 17,18L17,8Z" style="fill:rgb(161,57,57);"/>
                </g>
                <g transform="matrix(2.16667,0,0,0.393701,15.1667,31.1024)">
                    <path d="M17,10C17,8.344 16.69,7 16.308,7L5.692,7C5.31,7 5,8.344 5,10L5,16C5,17.656 5.31,19 5.692,19L16.308,19C16.69,19 17,17.656 17,16L17,10Z" style="fill:rgb(17,16,47);"/>
                </g>
                <g transform="matrix(0.329441,0,0,0.259402,10.2294,34.3802)">
                    <text x="57.089px" y="5.462px" style="font-family:'MicrosoftSansSerif', 'Microsoft Sans Serif', sans-serif;font-size:6.324px;fill:white;">description</text>
                    <text x="57.089px" y="13.051px" style="font-family:'MicrosoftSansSerif', 'Microsoft Sans Serif', sans-serif;font-size:6.324px;fill:rgb(190,190,190);">1</text>
                </g>
            </g>
            <g transform="matrix(0.641026,0,0,2.39623,13.4615,1.88679)">
                <g transform="matrix(0.333333,0,0,0.393701,21.3333,9.05512)">
                    <path d="M17,9C17,7.896 15.656,7 14,7L8,7C6.344,7 5,7.896 5,9L5,17C5,18.104 6.344,19 8,19L14,19C15.656,19 17,18.104 17,17L17,9Z" style="fill:rgb(161,57,57);"/>
                </g>
                <g transform="matrix(2.16667,0,0,0.393701,17.1667,9.05512)">
                    <path d="M17,10C17,8.344 16.69,7 16.308,7L5.692,7C5.31,7 5,8.344 5,10L5,16C5,17.656 5.31,19 5.692,19L16.308,19C16.69,19 17,17.656 17,16L17,10Z" style="fill:rgb(17,16,47);"/>
                </g>
                <g transform="matrix(0.329441,0,0,0.259402,12.2294,12.333)">
                    <text x="57.089px" y="5.462px" style="font-family:'MicrosoftSansSerif', 'Microsoft Sans Serif', sans-serif;font-size:6.324px;fill:white;">location</text>
                    <text x="57.089px" y="13.051px" style="font-family:'MicrosoftSansSerif', 'Microsoft Sans Serif', sans-serif;font-size:6.324px;fill:rgb(142,142,142);">346</text>
                </g>
            </g>
            <g transform="matrix(0.641026,0,0,2.39623,13.4615,-50.9434)">
                <g transform="matrix(0.583333,0,0,0.393701,20.0833,36.6142)">
                    <path d="M17,10C17,8.344 15.848,7 14.429,7L7.571,7C6.152,7 5,8.344 5,10L5,16C5,17.656 6.152,19 7.571,19L14.429,19C15.848,19 17,17.656 17,16L17,10Z" style="fill:rgb(161,57,57);"/>
                </g>
                <g transform="matrix(2.16667,0,0,0.393701,20.1667,36.6142)">
                    <path d="M17,10C17,8.344 16.69,7 16.308,7L5.692,7C5.31,7 5,8.344 5,10L5,16C5,17.656 5.31,19 5.692,19L16.308,19C16.69,19 17,17.656 17,16L17,10Z" style="fill:rgb(17,16,47);"/>
                </g>
                <g transform="matrix(0.329441,0,0,0.259402,15.2294,39.892)">
                    <text x="57.089px" y="5.462px" style="font-family:'MicrosoftSansSerif', 'Microsoft Sans Serif', sans-serif;font-size:6.324px;fill:white;">requirements</text>
                    <text x="57.089px" y="13.051px" style="font-family:'MicrosoftSansSerif', 'Microsoft Sans Serif', sans-serif;font-size:6.324px;fill:rgb(190,190,190);">2695</text>
                </g>
            </g>
            <g transform="matrix(0.641026,0,0,2.39623,13.4615,-11.3208)">
                <g transform="matrix(0.75,0,0,0.393701,19.25,25.5906)">
                    <path d="M17,10C17,8.344 16.104,7 15,7L7,7C5.896,7 5,8.344 5,10L5,16C5,17.656 5.896,19 7,19L15,19C16.104,19 17,17.656 17,16L17,10Z" style="fill:rgb(161,57,57);"/>
                </g>
                <g transform="matrix(2.16667,0,0,0.393701,22.1667,25.5906)">
                    <path d="M17,10C17,8.344 16.69,7 16.308,7L5.692,7C5.31,7 5,8.344 5,10L5,16C5,17.656 5.31,19 5.692,19L16.308,19C16.69,19 17,17.656 17,16L17,10Z" style="fill:rgb(17,16,47);"/>
                </g>
                <g transform="matrix(0.329441,0,0,0.259402,17.2294,28.8684)">
                    <text x="57.089px" y="5.462px" style="font-family:'MicrosoftSansSerif', 'Microsoft Sans Serif', sans-serif;font-size:6.324px;fill:white;">company_proﬁle</text>
                    <text x="57.089px" y="13.051px" style="font-family:'MicrosoftSansSerif', 'Microsoft Sans Serif', sans-serif;font-size:6.324px;fill:rgb(190,190,190);">3308</text>
                </g>
            </g>
            <g transform="matrix(0.641026,0,0,2.39623,13.4615,-90.566)">
                <g transform="matrix(0.833333,0,0,0.393701,18.8333,64.1732)">
                    <path d="M17,10C17,8.344 16.193,7 15.2,7L6.8,7C5.807,7 5,8.344 5,10L5,16C5,17.656 5.807,19 6.8,19L15.2,19C16.193,19 17,17.656 17,16L17,10Z" style="fill:rgb(161,57,57);"/>
                </g>
                <g transform="matrix(2.16667,0,0,0.393701,23.1667,64.1732)">
                    <path d="M17,10C17,8.344 16.69,7 16.308,7L5.692,7C5.31,7 5,8.344 5,10L5,16C5,17.656 5.31,19 5.692,19L16.308,19C16.69,19 17,17.656 17,16L17,10Z" style="fill:rgb(17,16,47);"/>
                </g>
                <g transform="matrix(0.329441,0,0,0.259402,18.2294,67.4511)">
                    <text x="57.089px" y="5.462px" style="font-family:'MicrosoftSansSerif', 'Microsoft Sans Serif', sans-serif;font-size:6.324px;fill:white;">employment_type</text>
                    <text x="57.089px" y="13.051px" style="font-family:'MicrosoftSansSerif', 'Microsoft Sans Serif', sans-serif;font-size:6.324px;fill:rgb(190,190,190);">3471</text>
                </g>
            </g>
            <g transform="matrix(0.641026,0,0,2.39623,13.4615,-116.981)">
                <g transform="matrix(1,0,0,0.393701,18,80.7087)">
                    <path d="M17,10C17,8.344 16.328,7 15.5,7L6.5,7C5.672,7 5,8.344 5,10L5,16C5,17.656 5.672,19 6.5,19L15.5,19C16.328,19 17,17.656 17,16L17,10Z" style="fill:rgb(161,57,57);"/>
                </g>
                <g transform="matrix(2.16667,0,0,0.393701,25.1667,80.7087)">
                    <path d="M17,10C17,8.344 16.69,7 16.308,7L5.692,7C5.31,7 5,8.344 5,10L5,16C5,17.656 5.31,19 5.692,19L16.308,19C16.69,19 17,17.656 17,16L17,10Z" style="fill:rgb(17,16,47);"/>
                </g>
                <g transform="matrix(0.329441,0,0,0.259402,20.2294,83.9865)">
                    <text x="57.089px" y="5.462px" style="font-family:'MicrosoftSansSerif', 'Microsoft Sans Serif', sans-serif;font-size:6.324px;fill:white;">industry</text>
                    <text x="57.089px" y="13.051px" style="font-family:'MicrosoftSansSerif', 'Microsoft Sans Serif', sans-serif;font-size:6.324px;fill:rgb(190,190,190);">4903</text>
                </g>
            </g>
            <g transform="matrix(0.641026,0,0,2.39623,45.5128,-196.226)">
                <g transform="matrix(1.33333,0,0,0.393701,16.3333,86.2205)">
                    <path d="M17,10C17,8.344 16.496,7 15.875,7L6.125,7C5.504,7 5,8.344 5,10L5,16C5,17.656 5.504,19 6.125,19L15.875,19C16.496,19 17,17.656 17,16L17,10Z" style="fill:rgb(161,57,57);"/>
                </g>
                <g transform="matrix(2.16667,0,0,0.393701,29.1667,86.2205)">
                    <path d="M17,10C17,8.344 16.69,7 16.308,7L5.692,7C5.31,7 5,8.344 5,10L5,16C5,17.656 5.31,19 5.692,19L16.308,19C16.69,19 17,17.656 17,16L17,10Z" style="fill:rgb(17,16,47);"/>
                </g>
                <g transform="matrix(0.329441,0,0,0.259402,24.2294,89.4983)">
                    <text x="57.089px" y="5.462px" style="font-family:'MicrosoftSansSerif', 'Microsoft Sans Serif', sans-serif;font-size:6.324px;fill:white;">function</text>
                    <text x="57.089px" y="13.051px" style="font-family:'MicrosoftSansSerif', 'Microsoft Sans Serif', sans-serif;font-size:6.324px;fill:rgb(190,190,190);">6455</text>
                </g>
            </g>
            <g transform="matrix(0.641026,0,0,2.39623,45.5128,-143.396)">
                <g transform="matrix(1.5,0,0,0.393701,15.5,69.685)">
                    <path d="M17,10C17,8.344 16.552,7 16,7L6,7C5.448,7 5,8.344 5,10L5,16C5,17.656 5.448,19 6,19L16,19C16.552,19 17,17.656 17,16L17,10Z" style="fill:rgb(161,57,57);"/>
                </g>
                <g transform="matrix(2.16667,0,0,0.393701,31.1667,69.685)">
                    <path d="M17,10C17,8.344 16.69,7 16.308,7L5.692,7C5.31,7 5,8.344 5,10L5,16C5,17.656 5.31,19 5.692,19L16.308,19C16.69,19 17,17.656 17,16L17,10Z" style="fill:rgb(17,16,47);"/>
                </g>
                <g transform="matrix(0.329441,0,0,0.259402,26.2294,72.9629)">
                    <text x="57.089px" y="5.462px" style="font-family:'MicrosoftSansSerif', 'Microsoft Sans Serif', sans-serif;font-size:6.324px;fill:white;">required_experience</text>
                    <text x="57.089px" y="13.051px" style="font-family:'MicrosoftSansSerif', 'Microsoft Sans Serif', sans-serif;font-size:6.324px;fill:rgb(190,190,190);">7050</text>
                </g>
            </g>
            <g transform="matrix(0.641026,0,0,2.39623,45.5128,-64.1509)">
                <g transform="matrix(1.66667,0,0,0.393701,14.6667,42.126)">
                    <path d="M17,10C17,8.344 16.597,7 16.1,7L5.9,7C5.403,7 5,8.344 5,10L5,16C5,17.656 5.403,19 5.9,19L16.1,19C16.597,19 17,17.656 17,16L17,10Z" style="fill:rgb(161,57,57);"/>
                </g>
                <g transform="matrix(2.16667,0,0,0.393701,33.1667,42.126)">
                    <path d="M17,10C17,8.344 16.69,7 16.308,7L5.692,7C5.31,7 5,8.344 5,10L5,16C5,17.656 5.31,19 5.692,19L16.308,19C16.69,19 17,17.656 17,16L17,10Z" style="fill:rgb(17,16,47);"/>
                </g>
                <g transform="matrix(0.329441,0,0,0.259402,28.2294,45.4038)">
                    <text x="57.089px" y="5.462px" style="font-family:'MicrosoftSansSerif', 'Microsoft Sans Serif', sans-serif;font-size:6.324px;fill:white;">beneﬁts</text>
                    <text x="57.089px" y="13.051px" style="font-family:'MicrosoftSansSerif', 'Microsoft Sans Serif', sans-serif;font-size:6.324px;fill:rgb(190,190,190);">7210</text>
                </g>
            </g>
            <g transform="matrix(0.641026,0,0,2.39623,45.5128,-130.189)">
                <g transform="matrix(1.91667,0,0,0.393701,13.4167,75.1969)">
                    <path d="M17,10C17,8.344 16.649,7 16.217,7L5.783,7C5.351,7 5,8.344 5,10L5,16C5,17.656 5.351,19 5.783,19L16.217,19C16.649,19 17,17.656 17,16L17,10Z" style="fill:rgb(161,57,57);"/>
                </g>
                <g transform="matrix(2.16667,0,0,0.393701,36.1667,75.1969)">
                    <path d="M17,10C17,8.344 16.69,7 16.308,7L5.692,7C5.31,7 5,8.344 5,10L5,16C5,17.656 5.31,19 5.692,19L16.308,19C16.69,19 17,17.656 17,16L17,10Z" style="fill:rgb(17,16,47);"/>
                </g>
                <g transform="matrix(0.329441,0,0,0.259402,31.2294,78.4747)">
                    <text x="57.089px" y="5.462px" style="font-family:'MicrosoftSansSerif', 'Microsoft Sans Serif', sans-serif;font-size:6.324px;fill:white;">required_education</text>
                    <text x="57.089px" y="13.051px" style="font-family:'MicrosoftSansSerif', 'Microsoft Sans Serif', sans-serif;font-size:6.324px;fill:rgb(190,190,190);">8105</text>
                </g>
            </g>
            <g transform="matrix(0.641026,0,0,2.39623,45.5128,28.3019)">
                <g transform="matrix(2.25,0,0,0.393701,11.75,14.5669)">
                    <path d="M17,10C17,8.344 16.701,7 16.333,7L5.667,7C5.299,7 5,8.344 5,10L5,16C5,17.656 5.299,19 5.667,19L16.333,19C16.701,19 17,17.656 17,16L17,10Z" style="fill:rgb(161,57,57);"/>
                </g>
                <g transform="matrix(2.16667,0,0,0.393701,40.1667,14.5669)">
                    <path d="M17,10C17,8.344 16.69,7 16.308,7L5.692,7C5.31,7 5,8.344 5,10L5,16C5,17.656 5.31,19 5.692,19L16.308,19C16.69,19 17,17.656 17,16L17,10Z" style="fill:rgb(17,16,47);"/>
                </g>
                <g transform="matrix(0.329441,0,0,0.259402,35.2294,17.8448)">
                    <text x="57.089px" y="5.462px" style="font-family:'MicrosoftSansSerif', 'Microsoft Sans Serif', sans-serif;font-size:6.324px;fill:white;">department</text>
                    <text x="57.089px" y="13.051px" style="font-family:'MicrosoftSansSerif', 'Microsoft Sans Serif', sans-serif;font-size:6.324px;fill:rgb(190,190,190);">11 547</text>
                </g>
            </g>
            <g transform="matrix(0.641026,0,0,2.39623,45.5128,28.3019)">
                <g transform="matrix(2.5,0,0,0.393701,10.5,20.0787)">
                    <path d="M17,10C17,8.344 16.731,7 16.4,7L5.6,7C5.269,7 5,8.344 5,10L5,16C5,17.656 5.269,19 5.6,19L16.4,19C16.731,19 17,17.656 17,16L17,10Z" style="fill:rgb(161,57,57);"/>
                </g>
                <g transform="matrix(2.16667,0,0,0.393701,43.1667,20.0787)">
                    <path d="M17,10C17,8.344 16.69,7 16.308,7L5.692,7C5.31,7 5,8.344 5,10L5,16C5,17.656 5.31,19 5.692,19L16.308,19C16.69,19 17,17.656 17,16L17,10Z" style="fill:rgb(17,16,47);"/>
                </g>
                <g transform="matrix(0.329441,0,0,0.259402,38.2294,23.3566)">
                    <text x="57.089px" y="5.462px" style="font-family:'MicrosoftSansSerif', 'Microsoft Sans Serif', sans-serif;font-size:6.324px;fill:white;">salary_range</text>
                    <text x="57.089px" y="13.051px" style="font-family:'MicrosoftSansSerif', 'Microsoft Sans Serif', sans-serif;font-size:6.324px;fill:rgb(190,190,190);">15 012</text>
                </g>
            </g>
        </g>
    </g>
</svg>
