<?xml version="1.0" encoding="UTF-8" standalone="no"?>
<!DOCTYPE svg PUBLIC "-//W3C//DTD SVG 1.1//EN" "http://www.w3.org/Graphics/SVG/1.1/DTD/svg11.dtd">
<svg width="100%" height="100%" viewBox="0 0 156 54" version="1.1" xmlns="http://www.w3.org/2000/svg" xmlns:xlink="http://www.w3.org/1999/xlink" xml:space="preserve" xmlns:serif="http://www.serif.com/" style="fill-rule:evenodd;clip-rule:evenodd;stroke-linecap:round;stroke-linejoin:round;stroke-miterlimit:1.5;">
    <g transform="matrix(1,0,0,1,-227,0)">
        <g id="c5" transform="matrix(1.56,0,0,0.54,227,0)">
            <rect x="0" y="0" width="100" height="100" style="fill:none;"/>
            <g transform="matrix(0.480769,0,0,0.388889,-0.641026,-3.7037)">
                <g transform="matrix(10.8889,0,0,5.95238,-47.7778,-27.381)">
                    <path d="M17,10C17,8.344 16.794,7 16.541,7L5.459,7C5.206,7 5,8.344 5,10L5,16C5,17.656 5.206,19 5.459,19L16.541,19C16.794,19 17,17.656 17,16L17,10Z" style="fill:rgb(73,73,73);"/>
                </g>
                <g transform="matrix(0.439254,0,0,1.56877,-10.3608,22.2042)">
                    <text x="57.089px" y="5.462px" style="font-family:'MicrosoftSansSerif', 'Microsoft Sans Serif', sans-serif;font-size:6.324px;fill:rgb(171,171,171);">ﬁg, axes = plt.subplots(2, 3, ﬁgsize = (12, 7), sharey = True)</text>
                    <text x="57.089px" y="20.64px" style="font-family:'MicrosoftSansSerif', 'Microsoft Sans Serif', sans-serif;font-size:6.324px;fill:rgb(171,171,171);">sns.countplot(&quot;telecommuting&quot;, data = df, ax = axes [0, 0])</text>
                    <text x="57.089px" y="28.228px" style="font-family:'MicrosoftSansSerif', 'Microsoft Sans Serif', sans-serif;font-size:6.324px;fill:rgb(171,171,171);">sns.countplot(&quot;has_company_logo&quot;, data = df, ax = axes [0, 1])</text>
                    <text x="57.089px" y="35.817px" style="font-family:'MicrosoftSansSerif', 'Microsoft Sans Serif', sans-serif;font-size:6.324px;fill:rgb(171,171,171);">sns.countplot(&quot;has_questions&quot;, data = df, ax = axes [0, 2])</text>
                </g>
            </g>
            <g transform="matrix(0.319242,0,0,0.264853,2.99992,42.5127)">
                <g transform="matrix(5.62229,0,0,17.8296,-21.4448,-159.465)">
                    <rect x="5" y="7" width="12" height="12" style="fill:rgb(7,0,218);fill-opacity:0;"/>
                    <clipPath id="_clip1">
                        <rect x="5" y="7" width="12" height="12"/>
                    </clipPath>
                    <g clip-path="url(#_clip1)">
                        <g transform="matrix(0.510204,0,0,0.392157,-203.929,7)">
                            <rect x="413" y="4" width="7" height="27" style="fill:rgb(199,93,93);"/>
                        </g>
                        <g transform="matrix(0.510204,0,0,0.0580973,-199.286,17.3558)">
                            <rect x="413" y="4" width="7" height="27" style="fill:rgb(199,150,93);"/>
                        </g>
                    </g>
                    <rect x="5" y="7" width="12" height="12" style="fill:none;stroke:rgb(4,0,129);stroke-width:0.16px;"/>
                </g>
                <g>
                    <g transform="matrix(2.00796,0,0,6.992,-808.565,84.2057)">
                        <text x="416.127px" y="14.925px" style="font-family:'MicrosoftSansSerif', 'Microsoft Sans Serif', sans-serif;font-size:1.25px;fill:rgb(190,190,190);">0</text>
                    </g>
                    <g transform="matrix(2.00796,0,0,6.992,-806.557,98.1897)">
                        <text x="416.127px" y="14.925px" style="font-family:'MicrosoftSansSerif', 'Microsoft Sans Serif', sans-serif;font-size:1.25px;fill:rgb(104,104,104);">telecommuting</text>
                    </g>
                    <g transform="matrix(2.00796,0,0,6.992,-784.469,84.2057)">
                        <text x="416.127px" y="14.925px" style="font-family:'MicrosoftSansSerif', 'Microsoft Sans Serif', sans-serif;font-size:1.25px;fill:rgb(190,190,190);">1</text>
                    </g>
                </g>
            </g>
            <g transform="matrix(0.319242,0,0,0.264853,2.99992,42.5127)">
                <g transform="matrix(5.62229,0,0,17.8296,54.8577,-159.465)">
                    <rect x="5" y="7" width="12" height="12" style="fill:rgb(7,0,218);fill-opacity:0;"/>
                    <clipPath id="_clip2">
                        <rect x="5" y="7" width="12" height="12"/>
                    </clipPath>
                    <g clip-path="url(#_clip2)">
                        <g transform="matrix(0.510204,0,0,0.0290487,-203.929,18.2564)">
                            <rect x="413" y="4" width="7" height="27" style="fill:rgb(199,93,93);"/>
                        </g>
                        <g transform="matrix(0.510204,0,0,0.421206,-199.286,6.09949)">
                            <rect x="413" y="4" width="7" height="27" style="fill:rgb(199,150,93);"/>
                        </g>
                    </g>
                    <rect x="5" y="7" width="12" height="12" style="fill:none;stroke:rgb(4,0,129);stroke-width:0.16px;"/>
                </g>
                <g transform="matrix(1,0,0,1,76.3024,0)">
                    <g transform="matrix(2.00796,0,0,6.992,-808.565,84.2057)">
                        <text x="416.127px" y="14.925px" style="font-family:'MicrosoftSansSerif', 'Microsoft Sans Serif', sans-serif;font-size:1.25px;fill:rgb(190,190,190);">0</text>
                    </g>
                    <g transform="matrix(2.00796,0,0,6.992,-806.557,98.1897)">
                        <text x="416.127px" y="14.925px" style="font-family:'MicrosoftSansSerif', 'Microsoft Sans Serif', sans-serif;font-size:1.25px;fill:rgb(104,104,104);">has_company_logo</text>
                    </g>
                    <g transform="matrix(2.00796,0,0,6.992,-784.469,84.2057)">
                        <text x="416.127px" y="14.925px" style="font-family:'MicrosoftSansSerif', 'Microsoft Sans Serif', sans-serif;font-size:1.25px;fill:rgb(190,190,190);">1</text>
                    </g>
                </g>
            </g>
            <g transform="matrix(0.319242,0,0,0.264853,27.3589,42.5127)">
                <g transform="matrix(5.62229,0,0,17.8296,54.8577,-159.465)">
                    <rect x="5" y="7" width="12" height="12" style="fill:rgb(7,0,218);fill-opacity:0;"/>
                    <clipPath id="_clip3">
                        <rect x="5" y="7" width="12" height="12"/>
                    </clipPath>
                    <g clip-path="url(#_clip3)">
                        <g transform="matrix(0.510204,0,0,0.130719,-203.929,15.1046)">
                            <rect x="413" y="4" width="7" height="27" style="fill:rgb(199,93,93);"/>
                        </g>
                        <g transform="matrix(0.510204,0,0,0.290487,-199.286,10.1518)">
                            <rect x="413" y="4" width="7" height="27" style="fill:rgb(199,150,93);"/>
                        </g>
                    </g>
                    <rect x="5" y="7" width="12" height="12" style="fill:none;stroke:rgb(4,0,129);stroke-width:0.16px;"/>
                </g>
                <g transform="matrix(1,0,0,1,76.3024,0)">
                    <g transform="matrix(2.00796,0,0,6.992,-808.565,84.2057)">
                        <text x="416.127px" y="14.925px" style="font-family:'MicrosoftSansSerif', 'Microsoft Sans Serif', sans-serif;font-size:1.25px;fill:rgb(190,190,190);">0</text>
                    </g>
                    <g transform="matrix(2.00796,0,0,6.992,-804.549,98.1897)">
                        <text x="416.127px" y="14.925px" style="font-family:'MicrosoftSansSerif', 'Microsoft Sans Serif', sans-serif;font-size:1.25px;fill:rgb(104,104,104);">has_questions</text>
                    </g>
                    <g transform="matrix(2.00796,0,0,6.992,-784.469,84.2057)">
                        <text x="416.127px" y="14.925px" style="font-family:'MicrosoftSansSerif', 'Microsoft Sans Serif', sans-serif;font-size:1.25px;fill:rgb(190,190,190);">1</text>
                    </g>
                </g>
            </g>
            <g transform="matrix(0.319242,0,0,0.264853,2.99992,42.5127)">
                <g transform="matrix(2.00796,0,0,6.992,-832.66,77.2137)">
                    <text x="416.127px" y="14.925px" style="font-family:'MicrosoftSansSerif', 'Microsoft Sans Serif', sans-serif;font-size:1.25px;fill:rgb(190,190,190);">0</text>
                </g>
                <g transform="matrix(2.00796,0,0,6.992,-834.668,49.2457)">
                    <text x="416.127px" y="14.925px" style="font-family:'MicrosoftSansSerif', 'Microsoft Sans Serif', sans-serif;font-size:1.25px;fill:rgb(190,190,190);">100</text>
                </g>
                <g transform="matrix(2.00796,0,0,6.992,-834.668,21.2777)">
                    <text x="416.127px" y="14.925px" style="font-family:'MicrosoftSansSerif', 'Microsoft Sans Serif', sans-serif;font-size:1.25px;fill:rgb(190,190,190);">200</text>
                </g>
                <g transform="matrix(2.00796,0,0,6.992,-834.668,-6.69029)">
                    <text x="416.127px" y="14.925px" style="font-family:'MicrosoftSansSerif', 'Microsoft Sans Serif', sans-serif;font-size:1.25px;fill:rgb(190,190,190);">300</text>
                </g>
                <g transform="matrix(2.00796,0,0,6.992,-834.668,-34.6583)">
                    <text x="416.127px" y="14.925px" style="font-family:'MicrosoftSansSerif', 'Microsoft Sans Serif', sans-serif;font-size:1.25px;fill:rgb(190,190,190);">400</text>
                </g>
                <g transform="matrix(2.00796,0,0,6.992,-834.668,-62.6263)">
                    <text x="416.127px" y="14.925px" style="font-family:'MicrosoftSansSerif', 'Microsoft Sans Serif', sans-serif;font-size:1.25px;fill:rgb(190,190,190);">500</text>
                </g>
                <g transform="matrix(2.00796,0,0,6.992,-834.668,-90.5943)">
                    <text x="416.127px" y="14.925px" style="font-family:'MicrosoftSansSerif', 'Microsoft Sans Serif', sans-serif;font-size:1.25px;fill:rgb(190,190,190);">600</text>
                </g>
                <g transform="matrix(2.00796,0,0,6.992,-834.668,-118.562)">
                    <text x="416.127px" y="14.925px" style="font-family:'MicrosoftSansSerif', 'Microsoft Sans Serif', sans-serif;font-size:1.25px;fill:rgb(190,190,190);">700</text>
                </g>
            </g>
        </g>
    </g>
</svg>
