<?xml version="1.0" encoding="UTF-8" standalone="no"?>
<!DOCTYPE svg PUBLIC "-//W3C//DTD SVG 1.1//EN" "http://www.w3.org/Graphics/SVG/1.1/DTD/svg11.dtd">
<svg width="100%" height="100%" viewBox="0 0 110 17" version="1.1" xmlns="http://www.w3.org/2000/svg" xmlns:xlink="http://www.w3.org/1999/xlink" xml:space="preserve" xmlns:serif="http://www.serif.com/" style="fill-rule:evenodd;clip-rule:evenodd;stroke-linejoin:round;stroke-miterlimit:2;">
    <g transform="matrix(1,0,0,1,-351,-124)">
        <g id="c7" transform="matrix(1.1,0,0,0.17,351,124)">
            <rect x="0" y="0" width="100" height="100" style="fill:none;"/>
            <g transform="matrix(0.681818,0,0,1.23529,-0.909091,-11.7647)">
                <g transform="matrix(10.8889,0,0,5.95238,-47.7778,-27.381)">
                    <path d="M17,10C17,8.344 16.794,7 16.541,7L5.459,7C5.206,7 5,8.344 5,10L5,16C5,17.656 5.206,19 5.459,19L16.541,19C16.794,19 17,17.656 17,16L17,10Z" style="fill:rgb(73,73,73);"/>
                </g>
                <g transform="matrix(0.439254,0,0,1.56877,-10.3608,22.2042)">
                    <text x="57.089px" y="5.462px" style="font-family:'MicrosoftSansSerif', 'Microsoft Sans Serif', sans-serif;font-size:6.324px;fill:rgb(171,171,171);">ﬁg, axes = plt.subplots(2, 3, ﬁgsize = (20, 10), sharey = True)</text>
                    <text x="57.089px" y="20.64px" style="font-family:'MicrosoftSansSerif', 'Microsoft Sans Serif', sans-serif;font-size:6.324px;fill:rgb(171,171,171);">sns.countplot(&quot;employment_type&quot;, data = df, ax = axes [0, 0])</text>
                    <text x="57.089px" y="28.228px" style="font-family:'MicrosoftSansSerif', 'Microsoft Sans Serif', sans-serif;font-size:6.324px;fill:rgb(171,171,171);">sns.countplot(&quot;required_experience&quot;, data = df, ax = axes [0, 1])</text>
                    <text x="57.089px" y="35.817px" style="font-family:'MicrosoftSansSerif', 'Microsoft Sans Serif', sans-serif;font-size:6.324px;fill:rgb(171,171,171);">sns.countplot(&quot;required_education&quot;, data = df, ax = axes [0, 2])</text>
                </g>
            </g>
        </g>
    </g>
</svg>
